<mxfile modified="2023-02-20T14:29:01.462Z" host="app.diagrams.net" agent="5.0 (Windows NT 10.0; Win64; x64) AppleWebKit/537.36 (KHTML, like Gecko) Chrome/110.0.0.0 Safari/537.36 Edg/110.0.1587.50" etag="_nOCiyLUZxm7QcGXXB3A" version="20.8.20" type="github">
  <diagram id="l8hXMBHkgcEJcSW0mbfh" name="Page-1">
    <mxGraphModel dx="1134" dy="671" grid="1" gridSize="10" guides="1" tooltips="1" connect="1" arrows="1" fold="1" page="1" pageScale="1" pageWidth="1169" pageHeight="827" math="0" shadow="0">
      <root>
        <mxCell id="0" />
        <mxCell id="1" parent="0" />
        <mxCell id="8--HhbSZYtI3ddgJnD71-21" style="edgeStyle=none;rounded=0;orthogonalLoop=1;jettySize=auto;html=1;sourcePerimeterSpacing=5;endArrow=none;endFill=0;targetPerimeterSpacing=5;entryX=0;entryY=0.5;entryDx=0;entryDy=0;exitX=1;exitY=0.5;exitDx=0;exitDy=0;" parent="1" source="Z3iqH2klsmwGmlw7B8To-19" target="Z3iqH2klsmwGmlw7B8To-10" edge="1">
          <mxGeometry relative="1" as="geometry">
            <mxPoint x="469" y="138" as="sourcePoint" />
            <mxPoint x="479" y="218" as="targetPoint" />
          </mxGeometry>
        </mxCell>
        <mxCell id="Z3iqH2klsmwGmlw7B8To-1" value="Configurator &#xa;(external)" style="shape=image;verticalLabelPosition=bottom;verticalAlign=top;imageAspect=0;aspect=fixed;image=data:image/svg+xml,PHN2ZyB4bWxucz0iaHR0cDovL3d3dy53My5vcmcvMjAwMC9zdmciIHZlcnNpb249IjEiIHZpZXdCb3g9IjAgMCA0OCA0OCIgZW5hYmxlLWJhY2tncm91bmQ9Im5ldyAwIDAgNDggNDgiPiYjeGE7ICAgIDxwYXRoIGZpbGw9IiM1NDZFN0EiIGQ9Ik00NCwzMEg0VjExYzAtMi4yLDEuOC00LDQtNGgzMmMyLjIsMCw0LDEuOCw0LDRWMzB6Ii8+JiN4YTsgICAgPHBhdGggZmlsbD0iIzY0QjVGNiIgZD0iTTQwLDI3SDhjLTAuNiwwLTEtMC40LTEtMVYxMWMwLTAuNiwwLjQtMSwxLTFoMzJjMC42LDAsMSwwLjQsMSwxdjE1QzQxLDI2LjYsNDAuNiwyNyw0MCwyN3oiLz4mI3hhOyAgICA8cGF0aCBmaWxsPSIjNzg5MDlDIiBkPSJNNDAsNDFIOGMtMi4yLDAtNC0xLjgtNC00di03aDQwdjdDNDQsMzkuMiw0Mi4yLDQxLDQwLDQxeiIvPiYjeGE7ICAgIDxnIGZpbGw9IiMzNzQ3NEYiPiYjeGE7ICAgICAgICA8cmVjdCB4PSIyNyIgeT0iMzQiIHdpZHRoPSIxMiIgaGVpZ2h0PSIyIi8+JiN4YTsgICAgICAgIDxyZWN0IHg9IjkiIHk9IjM0IiB3aWR0aD0iMTIiIGhlaWdodD0iMiIvPiYjeGE7ICAgICAgICA8cGF0aCBkPSJNMTgsMzVjMCwxLjEtMS4zLDItMywycy0zLTAuOS0zLTJIMTh6Ii8+JiN4YTsgICAgPC9nPiYjeGE7PC9zdmc+" parent="1" vertex="1">
          <mxGeometry x="849" y="100" width="48" height="48" as="geometry" />
        </mxCell>
        <mxCell id="Z3iqH2klsmwGmlw7B8To-3" value="Log Storage" style="shape=image;verticalLabelPosition=bottom;verticalAlign=top;imageAspect=0;aspect=fixed;image=data:image/svg+xml,PHN2ZyB4bWxucz0iaHR0cDovL3d3dy53My5vcmcvMjAwMC9zdmciIHZlcnNpb249IjEiIHZpZXdCb3g9IjAgMCA0OCA0OCIgZW5hYmxlLWJhY2tncm91bmQ9Im5ldyAwIDAgNDggNDgiPiYjeGE7ICAgIDxyZWN0IHg9IjEyIiB5PSI0NCIgZmlsbD0iIzI2MzIzOCIgd2lkdGg9IjQiIGhlaWdodD0iMiIvPiYjeGE7ICAgIDxyZWN0IHg9IjMyIiB5PSI0NCIgZmlsbD0iIzI2MzIzOCIgd2lkdGg9IjQiIGhlaWdodD0iMiIvPiYjeGE7ICAgIDxwYXRoIGZpbGw9IiM2MDdEOEIiIGQ9Ik04LDQxVjdjMC0yLjIsMS44LTQsNC00aDI0YzIuMiwwLDQsMS44LDQsNHYzNGMwLDIuMi0xLjgsNC00LDRIMTJDOS44LDQ1LDgsNDMuMiw4LDQxeiIvPiYjeGE7ICAgIDxwYXRoIGZpbGw9IiNCMEJFQzUiIGQ9Ik0xMiwxN1Y4YzAtMC42LDAuNC0xLDEtMWgyMmMwLjYsMCwxLDAuNCwxLDF2OUgxMnoiLz4mI3hhOyAgICA8cmVjdCB4PSIxMiIgeT0iMTkiIGZpbGw9IiNCMEJFQzUiIHdpZHRoPSIyNCIgaGVpZ2h0PSIxMCIvPiYjeGE7ICAgIDxwYXRoIGZpbGw9IiNCMEJFQzUiIGQ9Ik0xMiw0MHYtOWgyNHY5YzAsMC42LTAuNCwxLTEsMUgxM0MxMi40LDQxLDEyLDQwLjYsMTIsNDB6Ii8+JiN4YTsgICAgPHJlY3QgeD0iMjAiIHk9IjExIiBmaWxsPSIjNTQ2RTdBIiB3aWR0aD0iOCIgaGVpZ2h0PSIyIi8+JiN4YTsgICAgPHJlY3QgeD0iMjAiIHk9IjIzIiBmaWxsPSIjNTQ2RTdBIiB3aWR0aD0iOCIgaGVpZ2h0PSIyIi8+JiN4YTsgICAgPHJlY3QgeD0iMjAiIHk9IjM1IiBmaWxsPSIjNTQ2RTdBIiB3aWR0aD0iOCIgaGVpZ2h0PSIyIi8+JiN4YTs8L3N2Zz4=" parent="1" vertex="1">
          <mxGeometry x="239" y="123.5" width="48" height="48" as="geometry" />
        </mxCell>
        <mxCell id="Z3iqH2klsmwGmlw7B8To-5" value="Database" style="shape=image;verticalLabelPosition=bottom;verticalAlign=top;imageAspect=0;aspect=fixed;image=data:image/svg+xml,PHN2ZyB4bWxucz0iaHR0cDovL3d3dy53My5vcmcvMjAwMC9zdmciIHZlcnNpb249IjEiIHZpZXdCb3g9IjAgMCA0OCA0OCIgZW5hYmxlLWJhY2tncm91bmQ9Im5ldyAwIDAgNDggNDgiPiYjeGE7ICAgIDxnIGZpbGw9IiNEMUM0RTkiPiYjeGE7ICAgICAgICA8cGF0aCBkPSJNMzgsN0gxMEM4LjksNyw4LDcuOSw4LDl2NmMwLDEuMSwwLjksMiwyLDJoMjhjMS4xLDAsMi0wLjksMi0yVjlDNDAsNy45LDM5LjEsNywzOCw3eiIvPiYjeGE7ICAgICAgICA8cGF0aCBkPSJNMzgsMTlIMTBjLTEuMSwwLTIsMC45LTIsMnY2YzAsMS4xLDAuOSwyLDIsMmgyOGMxLjEsMCwyLTAuOSwyLTJ2LTZDNDAsMTkuOSwzOS4xLDE5LDM4LDE5eiIvPiYjeGE7ICAgICAgICA8cGF0aCBkPSJNMzgsMzFIMTBjLTEuMSwwLTIsMC45LTIsMnY2YzAsMS4xLDAuOSwyLDIsMmgyOGMxLjEsMCwyLTAuOSwyLTJ2LTZDNDAsMzEuOSwzOS4xLDMxLDM4LDMxeiIvPiYjeGE7ICAgIDwvZz4mI3hhOyAgICA8Y2lyY2xlIGZpbGw9IiM0M0EwNDciIGN4PSIzOCIgY3k9IjM4IiByPSIxMCIvPiYjeGE7ICAgIDxnIGZpbGw9IiNmZmYiPiYjeGE7ICAgICAgICA8cmVjdCB4PSIzNiIgeT0iMzIiIHdpZHRoPSI0IiBoZWlnaHQ9IjEyIi8+JiN4YTsgICAgICAgIDxyZWN0IHg9IjMyIiB5PSIzNiIgd2lkdGg9IjEyIiBoZWlnaHQ9IjQiLz4mI3hhOyAgICA8L2c+JiN4YTs8L3N2Zz4=" parent="1" vertex="1">
          <mxGeometry x="239" y="236.5" width="48" height="48" as="geometry" />
        </mxCell>
        <mxCell id="Z3iqH2klsmwGmlw7B8To-10" value="" style="shape=image;verticalLabelPosition=bottom;verticalAlign=top;imageAspect=0;aspect=fixed;image=data:image/svg+xml,PHN2ZyB4bWxucz0iaHR0cDovL3d3dy53My5vcmcvMjAwMC9zdmciIHZlcnNpb249IjEiIHZpZXdCb3g9IjAgMCA0OCA0OCIgZW5hYmxlLWJhY2tncm91bmQ9Im5ldyAwIDAgNDggNDgiPiYjeGE7ICAgIDxwb2x5Z29uIGZpbGw9IiM5MENBRjkiIHBvaW50cz0iMzYsMTMgMzYsOSAyMiw5IDIyLDIyIDEzLDIyIDEzLDI2IDIyLDI2IDIyLDM5IDM2LDM5IDM2LDM1IDI2LDM1IDI2LDI2IDM2LDI2IDM2LDIyIDI2LDIyIDI2LDEzIi8+JiN4YTsgICAgPHJlY3QgeD0iNiIgeT0iMTciIGZpbGw9IiNEODFCNjAiIHdpZHRoPSIxMCIgaGVpZ2h0PSIxNCIvPiYjeGE7ICAgIDxyZWN0IHg9IjMyIiB5PSI2IiBmaWxsPSIjMjE5NkYzIiB3aWR0aD0iMTAiIGhlaWdodD0iMTAiLz4mI3hhOyAgICA8cmVjdCB4PSIzMiIgeT0iMzIiIGZpbGw9IiMyMTk2RjMiIHdpZHRoPSIxMCIgaGVpZ2h0PSIxMCIvPiYjeGE7ICAgIDxyZWN0IHg9IjMyIiB5PSIxOSIgZmlsbD0iIzIxOTZGMyIgd2lkdGg9IjEwIiBoZWlnaHQ9IjEwIi8+JiN4YTs8L3N2Zz4=" parent="1" vertex="1">
          <mxGeometry x="592" y="180" width="48" height="48" as="geometry" />
        </mxCell>
        <mxCell id="Z3iqH2klsmwGmlw7B8To-11" value="Analytics &#xa;(external)" style="shape=image;verticalLabelPosition=bottom;verticalAlign=top;imageAspect=0;aspect=fixed;image=data:image/svg+xml,PHN2ZyB4bWxucz0iaHR0cDovL3d3dy53My5vcmcvMjAwMC9zdmciIHZlcnNpb249IjEiIHZpZXdCb3g9IjAgMCA0OCA0OCIgZW5hYmxlLWJhY2tncm91bmQ9Im5ldyAwIDAgNDggNDgiPiYjeGE7ICAgIDxnIGZpbGw9IiMzNzQ3NEYiPiYjeGE7ICAgICAgICA8cmVjdCB4PSIyMyIgeT0iNSIgd2lkdGg9IjIiIGhlaWdodD0iMzYiLz4mI3hhOyAgICAgICAgPHJlY3QgeD0iMjAuNSIgeT0iMzEuNCIgdHJhbnNmb3JtPSJtYXRyaXgoLjcwNyAuNzA3IC0uNzA3IC43MDcgMzMuNTIzIC0zLjkyMSkiIHdpZHRoPSIyIiBoZWlnaHQ9IjE0LjIiLz4mI3hhOyAgICAgICAgPHJlY3QgeD0iMjUuNSIgeT0iMzEuNCIgdHJhbnNmb3JtPSJtYXRyaXgoLS43MDcgLjcwNyAtLjcwNyAtLjcwNyA3Mi40ODcgNDYuOTk1KSIgd2lkdGg9IjIiIGhlaWdodD0iMTQuMiIvPiYjeGE7ICAgIDwvZz4mI3hhOyAgICA8cmVjdCB4PSI0IiB5PSI4IiBmaWxsPSIjQ0ZEOERDIiB3aWR0aD0iNDAiIGhlaWdodD0iMjgiLz4mI3hhOyAgICA8ZyBmaWxsPSIjNjA3RDhCIj4mI3hhOyAgICAgICAgPHJlY3QgeD0iMyIgeT0iNyIgd2lkdGg9IjQyIiBoZWlnaHQ9IjQiLz4mI3hhOyAgICAgICAgPHJlY3QgeD0iMyIgeT0iMzUiIHdpZHRoPSI0MiIgaGVpZ2h0PSIyIi8+JiN4YTsgICAgICAgIDxjaXJjbGUgY3g9IjMxLjUiIGN5PSI0My41IiByPSIxLjUiLz4mI3hhOyAgICAgICAgPGNpcmNsZSBjeD0iMTYuNSIgY3k9IjQzLjUiIHI9IjEuNSIvPiYjeGE7ICAgIDwvZz4mI3hhOyAgICA8ZyBmaWxsPSIjQzUxMTYyIj4mI3hhOyAgICAgICAgPHBvbHlnb24gcG9pbnRzPSIzMS45LDE4LjkgMjYsMjQuOSAyMCwxOC45IDExLjksMjYuOSAxNC4xLDI5LjEgMjAsMjMuMSAyNiwyOS4xIDM0LjEsMjEuMSIvPiYjeGE7ICAgICAgICA8cG9seWdvbiBwb2ludHM9IjM2LDI0IDI5LDE3IDM2LDE3Ii8+JiN4YTsgICAgPC9nPiYjeGE7PC9zdmc+" parent="1" vertex="1">
          <mxGeometry x="849" y="265" width="50" height="50" as="geometry" />
        </mxCell>
        <mxCell id="t_mzuNe1XYrUj1BvsxeK-1" style="edgeStyle=orthogonalEdgeStyle;rounded=0;orthogonalLoop=1;jettySize=auto;html=1;exitX=0;exitY=0.75;exitDx=0;exitDy=0;entryX=1;entryY=0.5;entryDx=0;entryDy=0;" edge="1" parent="1" source="Z3iqH2klsmwGmlw7B8To-19" target="Z3iqH2klsmwGmlw7B8To-5">
          <mxGeometry relative="1" as="geometry" />
        </mxCell>
        <mxCell id="t_mzuNe1XYrUj1BvsxeK-2" style="edgeStyle=orthogonalEdgeStyle;rounded=0;orthogonalLoop=1;jettySize=auto;html=1;exitX=0;exitY=0.25;exitDx=0;exitDy=0;entryX=1;entryY=0.5;entryDx=0;entryDy=0;" edge="1" parent="1" source="Z3iqH2klsmwGmlw7B8To-19" target="Z3iqH2klsmwGmlw7B8To-3">
          <mxGeometry relative="1" as="geometry" />
        </mxCell>
        <mxCell id="t_mzuNe1XYrUj1BvsxeK-3" style="edgeStyle=orthogonalEdgeStyle;rounded=0;orthogonalLoop=1;jettySize=auto;html=1;exitX=1;exitY=0.75;exitDx=0;exitDy=0;entryX=0;entryY=0.5;entryDx=0;entryDy=0;" edge="1" parent="1" source="Z3iqH2klsmwGmlw7B8To-19" target="Z3iqH2klsmwGmlw7B8To-34">
          <mxGeometry relative="1" as="geometry" />
        </mxCell>
        <mxCell id="t_mzuNe1XYrUj1BvsxeK-23" style="edgeStyle=orthogonalEdgeStyle;rounded=0;orthogonalLoop=1;jettySize=auto;html=1;exitX=0.5;exitY=1;exitDx=0;exitDy=0;fontSize=19;entryX=0;entryY=0.5;entryDx=0;entryDy=0;" edge="1" parent="1" source="Z3iqH2klsmwGmlw7B8To-19" target="t_mzuNe1XYrUj1BvsxeK-69">
          <mxGeometry relative="1" as="geometry">
            <mxPoint x="410" y="300" as="targetPoint" />
          </mxGeometry>
        </mxCell>
        <mxCell id="Z3iqH2klsmwGmlw7B8To-19" value="Edge Core" style="shape=image;verticalLabelPosition=bottom;verticalAlign=top;imageAspect=0;aspect=fixed;image=data:image/svg+xml,PHN2ZyB4bWxucz0iaHR0cDovL3d3dy53My5vcmcvMjAwMC9zdmciIHZlcnNpb249IjEiIHZpZXdCb3g9IjAgMCA0OCA0OCIgZW5hYmxlLWJhY2tncm91bmQ9Im5ldyAwIDAgNDggNDgiPiYjeGE7ICAgIDxwYXRoIGZpbGw9IiMzNzQ3NEYiIGQ9Ik04LDQxVjdjMC0yLjIsMS44LTQsNC00aDI0YzIuMiwwLDQsMS44LDQsNHYzNGMwLDIuMi0xLjgsNC00LDRIMTJDOS44LDQ1LDgsNDMuMiw4LDQxeiIvPiYjeGE7ICAgIDxwYXRoIGZpbGw9IiNlZWUiIGQ9Ik0zNSw2SDEzYy0wLjYsMC0xLDAuNC0xLDF2MjljMCwwLjYsMC40LDEsMSwxaDIyYzAuNiwwLDEtMC40LDEtMVY3QzM2LDYuNCwzNS42LDYsMzUsNnoiLz4mI3hhOyAgICA8cmVjdCB4PSIyMCIgeT0iNDAiIGZpbGw9IiM1NDZFN0EiIHdpZHRoPSI4IiBoZWlnaHQ9IjIiLz4mI3hhOyAgICA8ZyBmaWxsPSIjQTFBMUExIj4mI3hhOyAgICAgICAgPHJlY3QgeD0iMTYiIHk9IjExIiB3aWR0aD0iMTYiIGhlaWdodD0iMyIvPiYjeGE7ICAgICAgICA8cmVjdCB4PSIxNiIgeT0iMTgiIHdpZHRoPSIxNiIgaGVpZ2h0PSIyIi8+JiN4YTsgICAgICAgIDxyZWN0IHg9IjE2IiB5PSIyMiIgd2lkdGg9IjEyIiBoZWlnaHQ9IjIiLz4mI3hhOyAgICAgICAgPHJlY3QgeD0iMTYiIHk9IjI2IiB3aWR0aD0iMTYiIGhlaWdodD0iMiIvPiYjeGE7ICAgICAgICA8cmVjdCB4PSIxNiIgeT0iMzAiIHdpZHRoPSIxMiIgaGVpZ2h0PSIyIi8+JiN4YTsgICAgPC9nPiYjeGE7PC9zdmc+" parent="1" vertex="1">
          <mxGeometry x="339" y="160" width="88" height="88" as="geometry" />
        </mxCell>
        <mxCell id="Z3iqH2klsmwGmlw7B8To-20" value="Socket TCP" style="shape=image;verticalLabelPosition=bottom;verticalAlign=top;imageAspect=0;aspect=fixed;image=data:image/svg+xml,PHN2ZyB4bWxucz0iaHR0cDovL3d3dy53My5vcmcvMjAwMC9zdmciIHZlcnNpb249IjEiIHZpZXdCb3g9IjAgMCA0OCA0OCIgZW5hYmxlLWJhY2tncm91bmQ9Im5ldyAwIDAgNDggNDgiPiYjeGE7ICAgIDxyZWN0IHg9IjciIHk9IjQiIGZpbGw9IiNCQkRFRkIiIHdpZHRoPSIzNCIgaGVpZ2h0PSI0MCIvPiYjeGE7ICAgIDxnIGZpbGw9IiMyMTk2RjMiPiYjeGE7ICAgICAgICA8cmVjdCB4PSIxMyIgeT0iMjYiIHdpZHRoPSI0IiBoZWlnaHQ9IjQiLz4mI3hhOyAgICAgICAgPHJlY3QgeD0iMTMiIHk9IjE4IiB3aWR0aD0iNCIgaGVpZ2h0PSI0Ii8+JiN4YTsgICAgICAgIDxyZWN0IHg9IjEzIiB5PSIzNCIgd2lkdGg9IjQiIGhlaWdodD0iNCIvPiYjeGE7ICAgICAgICA8cmVjdCB4PSIxMyIgeT0iMTAiIHdpZHRoPSI0IiBoZWlnaHQ9IjQiLz4mI3hhOyAgICAgICAgPHJlY3QgeD0iMjEiIHk9IjI2IiB3aWR0aD0iMTQiIGhlaWdodD0iNCIvPiYjeGE7ICAgICAgICA8cmVjdCB4PSIyMSIgeT0iMTgiIHdpZHRoPSIxNCIgaGVpZ2h0PSI0Ii8+JiN4YTsgICAgICAgIDxyZWN0IHg9IjIxIiB5PSIzNCIgd2lkdGg9IjE0IiBoZWlnaHQ9IjQiLz4mI3hhOyAgICAgICAgPHJlY3QgeD0iMjEiIHk9IjEwIiB3aWR0aD0iMTQiIGhlaWdodD0iNCIvPiYjeGE7ICAgIDwvZz4mI3hhOzwvc3ZnPg==;rotation=0;" parent="1" vertex="1">
          <mxGeometry x="709" y="106" width="36" height="36" as="geometry" />
        </mxCell>
        <mxCell id="Z3iqH2klsmwGmlw7B8To-22" value="Web Socket" style="shape=image;verticalLabelPosition=bottom;verticalAlign=top;imageAspect=0;aspect=fixed;image=data:image/svg+xml,PHN2ZyB4bWxucz0iaHR0cDovL3d3dy53My5vcmcvMjAwMC9zdmciIHZlcnNpb249IjEiIHZpZXdCb3g9IjAgMCA0OCA0OCIgZW5hYmxlLWJhY2tncm91bmQ9Im5ldyAwIDAgNDggNDgiPiYjeGE7ICAgIDxyZWN0IHg9IjciIHk9IjQiIGZpbGw9IiNCQkRFRkIiIHdpZHRoPSIzNCIgaGVpZ2h0PSI0MCIvPiYjeGE7ICAgIDxnIGZpbGw9IiMyMTk2RjMiPiYjeGE7ICAgICAgICA8cmVjdCB4PSIxMyIgeT0iMjYiIHdpZHRoPSI0IiBoZWlnaHQ9IjQiLz4mI3hhOyAgICAgICAgPHJlY3QgeD0iMTMiIHk9IjE4IiB3aWR0aD0iNCIgaGVpZ2h0PSI0Ii8+JiN4YTsgICAgICAgIDxyZWN0IHg9IjEzIiB5PSIzNCIgd2lkdGg9IjQiIGhlaWdodD0iNCIvPiYjeGE7ICAgICAgICA8cmVjdCB4PSIxMyIgeT0iMTAiIHdpZHRoPSI0IiBoZWlnaHQ9IjQiLz4mI3hhOyAgICAgICAgPHJlY3QgeD0iMjEiIHk9IjI2IiB3aWR0aD0iMTQiIGhlaWdodD0iNCIvPiYjeGE7ICAgICAgICA8cmVjdCB4PSIyMSIgeT0iMTgiIHdpZHRoPSIxNCIgaGVpZ2h0PSI0Ii8+JiN4YTsgICAgICAgIDxyZWN0IHg9IjIxIiB5PSIzNCIgd2lkdGg9IjE0IiBoZWlnaHQ9IjQiLz4mI3hhOyAgICAgICAgPHJlY3QgeD0iMjEiIHk9IjEwIiB3aWR0aD0iMTQiIGhlaWdodD0iNCIvPiYjeGE7ICAgIDwvZz4mI3hhOzwvc3ZnPg==;rotation=0;" parent="1" vertex="1">
          <mxGeometry x="709" y="270" width="40" height="40" as="geometry" />
        </mxCell>
        <mxCell id="Z3iqH2klsmwGmlw7B8To-29" value="PLC" style="shape=image;verticalLabelPosition=bottom;verticalAlign=top;imageAspect=0;aspect=fixed;image=data:image/svg+xml,PHN2ZyB4bWxucz0iaHR0cDovL3d3dy53My5vcmcvMjAwMC9zdmciIHZlcnNpb249IjEiIHZpZXdCb3g9IjAgMCA0OCA0OCIgZW5hYmxlLWJhY2tncm91bmQ9Im5ldyAwIDAgNDggNDgiPiYjeGE7ICAgIDxwYXRoIGZpbGw9IiNFNjUxMDAiIGQ9Ik0yNS42LDM0LjRjMC4xLTAuNCwwLjEtMC45LDAuMS0xLjRzMC0wLjktMC4xLTEuNGwyLjgtMmMwLjMtMC4yLDAuNC0wLjYsMC4yLTAuOWwtMi43LTQuNiBjLTAuMi0wLjMtMC41LTAuNC0wLjgtMC4zTDIyLDI1LjNjLTAuNy0wLjYtMS41LTEtMi40LTEuNGwtMC4zLTMuNGMwLTAuMy0wLjMtMC42LTAuNi0wLjZoLTUuM2MtMC4zLDAtMC42LDAuMy0wLjYsMC42TDEyLjQsMjQgYy0wLjksMC4zLTEuNiwwLjgtMi40LDEuNGwtMy4xLTEuNGMtMC4zLTAuMS0wLjcsMC0wLjgsMC4zbC0yLjcsNC42Yy0wLjIsMC4zLTAuMSwwLjcsMC4yLDAuOWwyLjgsMmMtMC4xLDAuNC0wLjEsMC45LTAuMSwxLjQgczAsMC45LDAuMSwxLjRsLTIuOCwyYy0wLjMsMC4yLTAuNCwwLjYtMC4yLDAuOWwyLjcsNC42YzAuMiwwLjMsMC41LDAuNCwwLjgsMC4zbDMuMS0xLjRjMC43LDAuNiwxLjUsMSwyLjQsMS40bDAuMywzLjQgYzAsMC4zLDAuMywwLjYsMC42LDAuNmg1LjNjMC4zLDAsMC42LTAuMywwLjYtMC42bDAuMy0zLjRjMC45LTAuMywxLjYtMC44LDIuNC0xLjRsMy4xLDEuNGMwLjMsMC4xLDAuNywwLDAuOC0wLjNsMi43LTQuNiBjMC4yLTAuMywwLjEtMC43LTAuMi0wLjlMMjUuNiwzNC40eiBNMTYsMzhjLTIuOCwwLTUtMi4yLTUtNWMwLTIuOCwyLjItNSw1LTVjMi44LDAsNSwyLjIsNSw1QzIxLDM1LjgsMTguOCwzOCwxNiwzOHoiLz4mI3hhOyAgICA8cGF0aCBmaWxsPSIjRkZBMDAwIiBkPSJNNDEuOSwxNS4zQzQyLDE0LjgsNDIsMTQuNCw0MiwxNHMwLTAuOC0wLjEtMS4zbDIuNS0xLjhjMC4zLTAuMiwwLjMtMC41LDAuMi0wLjhsLTIuNS00LjMgYy0wLjItMC4zLTAuNS0wLjQtMC44LTAuMmwtMi45LDEuM2MtMC43LTAuNS0xLjQtMC45LTIuMi0xLjNsLTAuMy0zLjFDMzYsMi4yLDM1LjgsMiwzNS41LDJoLTQuOWMtMC4zLDAtMC42LDAuMi0wLjYsMC41bC0wLjMsMy4xIGMtMC44LDAuMy0xLjUsMC43LTIuMiwxLjNsLTIuOS0xLjNjLTAuMy0wLjEtMC42LDAtMC44LDAuMmwtMi41LDQuM2MtMC4yLDAuMy0wLjEsMC42LDAuMiwwLjhsMi41LDEuOEMyNCwxMy4yLDI0LDEzLjYsMjQsMTQgczAsMC44LDAuMSwxLjNsLTIuNSwxLjhjLTAuMywwLjItMC4zLDAuNS0wLjIsMC44bDIuNSw0LjNjMC4yLDAuMywwLjUsMC40LDAuOCwwLjJsMi45LTEuM2MwLjcsMC41LDEuNCwwLjksMi4yLDEuM2wwLjMsMy4xIGMwLDAuMywwLjMsMC41LDAuNiwwLjVoNC45YzAuMywwLDAuNi0wLjIsMC42LTAuNWwwLjMtMy4xYzAuOC0wLjMsMS41LTAuNywyLjItMS4zbDIuOSwxLjNjMC4zLDAuMSwwLjYsMCwwLjgtMC4ybDIuNS00LjMgYzAuMi0wLjMsMC4xLTAuNi0wLjItMC44TDQxLjksMTUuM3ogTTMzLDE5Yy0yLjgsMC01LTIuMi01LTVjMC0yLjgsMi4yLTUsNS01YzIuOCwwLDUsMi4yLDUsNUMzOCwxNi44LDM1LjgsMTksMzMsMTl6Ii8+JiN4YTs8L3N2Zz4=;rotation=0;" parent="1" vertex="1">
          <mxGeometry x="39" y="720" width="50" height="50" as="geometry" />
        </mxCell>
        <mxCell id="Z3iqH2klsmwGmlw7B8To-34" value="Rules Engine" style="shape=image;verticalLabelPosition=bottom;verticalAlign=top;imageAspect=0;aspect=fixed;image=data:image/svg+xml,PHN2ZyB4bWxucz0iaHR0cDovL3d3dy53My5vcmcvMjAwMC9zdmciIHZlcnNpb249IjEiIHZpZXdCb3g9IjAgMCA0OCA0OCIgZW5hYmxlLWJhY2tncm91bmQ9Im5ldyAwIDAgNDggNDgiPiYjeGE7ICAgIDxnIGZpbGw9IiNGRkNDODAiPiYjeGE7ICAgICAgICA8Y2lyY2xlIGN4PSIzOCIgY3k9IjI2IiByPSI0Ii8+JiN4YTsgICAgICAgIDxjaXJjbGUgY3g9IjEwIiBjeT0iMjYiIHI9IjQiLz4mI3hhOyAgICAgICAgPHBhdGggZD0iTTM5LDE5YzAtMTIuNy0zMC04LjMtMzAsMGMwLDEuOCwwLDguMiwwLDEwYzAsOC4zLDYuNywxNSwxNSwxNXMxNS02LjcsMTUtMTVDMzksMjcuMiwzOSwyMC44LDM5LDE5eiIvPiYjeGE7ICAgICAgICA8cGF0aCBkPSJNMjQsNEMxNS4yLDQsOCwxMS4yLDgsMjBjMCwxLjIsMCwzLjUsMCwzLjVsMi4xLDAuNlYxOWwxOS41LTYuM2w4LjIsNi4zdjUuMWwyLjEtMC42YzAsMCwwLTIuMywwLTMuNSBDNDAsMTIuNSwzNC42LDQsMjQsNHoiLz4mI3hhOyAgICA8L2c+JiN4YTsgICAgPGcgZmlsbD0iIzM3NDc0RiI+JiN4YTsgICAgICAgIDxjaXJjbGUgY3g9IjI0IiBjeT0iMjUiIHI9IjIiLz4mI3hhOyAgICAgICAgPGNpcmNsZSBjeD0iMzIiIGN5PSIyNSIgcj0iMiIvPiYjeGE7ICAgICAgICA8Y2lyY2xlIGN4PSIxNiIgY3k9IjI1IiByPSIyIi8+JiN4YTsgICAgPC9nPiYjeGE7PC9zdmc+" parent="1" vertex="1">
          <mxGeometry x="490" y="236.5" width="48" height="48" as="geometry" />
        </mxCell>
        <mxCell id="Z3iqH2klsmwGmlw7B8To-41" value="Socket Manager" style="text;html=1;strokeColor=none;fillColor=none;align=center;verticalAlign=middle;whiteSpace=wrap;rounded=0;" parent="1" vertex="1">
          <mxGeometry x="633" y="189" width="60" height="30" as="geometry" />
        </mxCell>
        <mxCell id="Z3iqH2klsmwGmlw7B8To-42" value="" style="endArrow=classic;startArrow=classic;html=1;rounded=0;entryX=0;entryY=0.5;entryDx=0;entryDy=0;exitX=1;exitY=0.5;exitDx=0;exitDy=0;" parent="1" source="Z3iqH2klsmwGmlw7B8To-20" target="Z3iqH2klsmwGmlw7B8To-1" edge="1">
          <mxGeometry width="50" height="50" relative="1" as="geometry">
            <mxPoint x="519" y="110" as="sourcePoint" />
            <mxPoint x="569" y="60" as="targetPoint" />
          </mxGeometry>
        </mxCell>
        <mxCell id="Z3iqH2klsmwGmlw7B8To-44" value="" style="endArrow=classic;startArrow=classic;html=1;rounded=0;entryX=0;entryY=0.5;entryDx=0;entryDy=0;exitX=1;exitY=0.5;exitDx=0;exitDy=0;" parent="1" source="Z3iqH2klsmwGmlw7B8To-22" target="Z3iqH2klsmwGmlw7B8To-11" edge="1">
          <mxGeometry width="50" height="50" relative="1" as="geometry">
            <mxPoint x="779" y="250" as="sourcePoint" />
            <mxPoint x="839" y="289.28999999999996" as="targetPoint" />
          </mxGeometry>
        </mxCell>
        <mxCell id="Z3iqH2klsmwGmlw7B8To-53" value="" style="endArrow=classic;startArrow=classic;html=1;rounded=0;exitX=0.5;exitY=0;exitDx=0;exitDy=0;entryX=0.5;entryY=0;entryDx=0;entryDy=0;" parent="1" source="Z3iqH2klsmwGmlw7B8To-19" target="Z3iqH2klsmwGmlw7B8To-20" edge="1">
          <mxGeometry width="50" height="50" relative="1" as="geometry">
            <mxPoint x="520" y="152" as="sourcePoint" />
            <mxPoint x="570" y="102" as="targetPoint" />
            <Array as="points">
              <mxPoint x="384" y="82" />
              <mxPoint x="470" y="82" />
              <mxPoint x="728" y="82" />
            </Array>
          </mxGeometry>
        </mxCell>
        <mxCell id="Z3iqH2klsmwGmlw7B8To-54" value="Project Files" style="shape=image;verticalLabelPosition=bottom;verticalAlign=top;imageAspect=0;aspect=fixed;image=data:image/svg+xml,PHN2ZyB4bWxucz0iaHR0cDovL3d3dy53My5vcmcvMjAwMC9zdmciIHZlcnNpb249IjEiIHZpZXdCb3g9IjAgMCA0OCA0OCIgZW5hYmxlLWJhY2tncm91bmQ9Im5ldyAwIDAgNDggNDgiPiYjeGE7ICAgIDxwYXRoIGZpbGw9IiM3ODkwOUMiIGQ9Ik00MCw0MUg4Yy0yLjIsMC00LTEuOC00LTRsMC0yMC45YzAtMS4zLDAuNi0yLjUsMS43LTMuM0wyNCwwbDE4LjMsMTIuOGMxLjEsMC43LDEuNywyLDEuNywzLjNWMzcgQzQ0LDM5LjIsNDIuMiw0MSw0MCw0MXoiLz4mI3hhOyAgICA8cmVjdCB4PSIxMiIgeT0iMTEiIGZpbGw9IiNmZmYiIHdpZHRoPSIyNCIgaGVpZ2h0PSIyMiIvPiYjeGE7ICAgIDxwb2x5Z29uIGZpbGw9IiM5QzI3QjAiIHBvaW50cz0iMjQsMTMuNiAxOCwyMS40IDMwLDIxLjQiLz4mI3hhOyAgICA8cGF0aCBmaWxsPSIjQ0ZEOERDIiBkPSJNNDAsNDFIOGMtMi4yLDAtNC0xLjgtNC00bDAtMjBsMjAsMTNsMjAtMTN2MjBDNDQsMzkuMiw0Mi4yLDQxLDQwLDQxeiIvPiYjeGE7ICAgIDxwb2x5Z29uIGZpbGw9IiM5QzI3QjAiIHBvaW50cz0iMjQsMjggMjYsMjYuNyAyNiwyMCAyMiwyMCAyMiwyNi43Ii8+JiN4YTs8L3N2Zz4=" parent="1" vertex="1">
          <mxGeometry x="537" y="12" width="48" height="48" as="geometry" />
        </mxCell>
        <mxCell id="Z3iqH2klsmwGmlw7B8To-55" value="" style="endArrow=none;html=1;rounded=0;exitX=0.5;exitY=0;exitDx=0;exitDy=0;entryX=0;entryY=0.5;entryDx=0;entryDy=0;" parent="1" source="Z3iqH2klsmwGmlw7B8To-10" target="Z3iqH2klsmwGmlw7B8To-20" edge="1">
          <mxGeometry width="50" height="50" relative="1" as="geometry">
            <mxPoint x="519" y="80" as="sourcePoint" />
            <mxPoint x="569" y="30" as="targetPoint" />
          </mxGeometry>
        </mxCell>
        <mxCell id="Z3iqH2klsmwGmlw7B8To-56" value="" style="endArrow=none;html=1;rounded=0;exitX=0.5;exitY=1;exitDx=0;exitDy=0;entryX=0;entryY=0.5;entryDx=0;entryDy=0;" parent="1" source="Z3iqH2klsmwGmlw7B8To-10" target="Z3iqH2klsmwGmlw7B8To-22" edge="1">
          <mxGeometry width="50" height="50" relative="1" as="geometry">
            <mxPoint x="519" y="80" as="sourcePoint" />
            <mxPoint x="569" y="30" as="targetPoint" />
          </mxGeometry>
        </mxCell>
        <mxCell id="t_mzuNe1XYrUj1BvsxeK-7" value="" style="shape=image;verticalLabelPosition=bottom;verticalAlign=top;imageAspect=0;aspect=fixed;image=data:image/svg+xml,PHN2ZyB4bWxucz0iaHR0cDovL3d3dy53My5vcmcvMjAwMC9zdmciIHZlcnNpb249IjEiIHZpZXdCb3g9IjAgMCA0OCA0OCIgZW5hYmxlLWJhY2tncm91bmQ9Im5ldyAwIDAgNDggNDgiPiYjeGE7ICAgIDxwb2x5Z29uIGZpbGw9IiM5MENBRjkiIHBvaW50cz0iMzYsMTMgMzYsOSAyMiw5IDIyLDIyIDEzLDIyIDEzLDI2IDIyLDI2IDIyLDM5IDM2LDM5IDM2LDM1IDI2LDM1IDI2LDI2IDM2LDI2IDM2LDIyIDI2LDIyIDI2LDEzIi8+JiN4YTsgICAgPHJlY3QgeD0iNiIgeT0iMTciIGZpbGw9IiNEODFCNjAiIHdpZHRoPSIxMCIgaGVpZ2h0PSIxNCIvPiYjeGE7ICAgIDxyZWN0IHg9IjMyIiB5PSI2IiBmaWxsPSIjMjE5NkYzIiB3aWR0aD0iMTAiIGhlaWdodD0iMTAiLz4mI3hhOyAgICA8cmVjdCB4PSIzMiIgeT0iMzIiIGZpbGw9IiMyMTk2RjMiIHdpZHRoPSIxMCIgaGVpZ2h0PSIxMCIvPiYjeGE7ICAgIDxyZWN0IHg9IjMyIiB5PSIxOSIgZmlsbD0iIzIxOTZGMyIgd2lkdGg9IjEwIiBoZWlnaHQ9IjEwIi8+JiN4YTs8L3N2Zz4=;rotation=90;" vertex="1" parent="1">
          <mxGeometry x="180" y="432" width="48" height="48" as="geometry" />
        </mxCell>
        <mxCell id="t_mzuNe1XYrUj1BvsxeK-8" value="Plant 1" style="text;html=1;strokeColor=none;fillColor=none;align=center;verticalAlign=middle;whiteSpace=wrap;rounded=0;" vertex="1" parent="1">
          <mxGeometry x="217" y="441" width="60" height="30" as="geometry" />
        </mxCell>
        <mxCell id="t_mzuNe1XYrUj1BvsxeK-57" style="edgeStyle=orthogonalEdgeStyle;rounded=0;orthogonalLoop=1;jettySize=auto;html=1;exitX=0.5;exitY=1;exitDx=0;exitDy=0;entryX=0.5;entryY=0;entryDx=0;entryDy=0;fontSize=12;" edge="1" parent="1" source="t_mzuNe1XYrUj1BvsxeK-10" target="t_mzuNe1XYrUj1BvsxeK-49">
          <mxGeometry relative="1" as="geometry" />
        </mxCell>
        <mxCell id="t_mzuNe1XYrUj1BvsxeK-10" value="Station 2" style="shape=image;verticalLabelPosition=bottom;verticalAlign=top;imageAspect=0;aspect=fixed;image=data:image/svg+xml,PHN2ZyB4bWxucz0iaHR0cDovL3d3dy53My5vcmcvMjAwMC9zdmciIHZlcnNpb249IjEiIHZpZXdCb3g9IjAgMCA0OCA0OCIgZW5hYmxlLWJhY2tncm91bmQ9Im5ldyAwIDAgNDggNDgiPiYjeGE7ICAgIDxnIGZpbGw9IiMxNTY1QzAiPiYjeGE7ICAgICAgICA8cGF0aCBkPSJNMTMsMTNjMC0zLjMsMi43LTYsNi02aDEwYzMuMywwLDYsMi43LDYsNmg0YzAtNS41LTQuNS0xMC0xMC0xMEgxOUMxMy41LDMsOSw3LjUsOSwxM3YxMS4yaDRWMTN6Ii8+JiN4YTsgICAgICAgIDxwb2x5Z29uIHBvaW50cz0iNC42LDIyIDExLDMwLjQgMTcuNCwyMiIvPiYjeGE7ICAgIDwvZz4mI3hhOyAgICA8ZyBmaWxsPSIjMTU2NUMwIj4mI3hhOyAgICAgICAgPHBhdGggZD0iTTM1LDM1YzAsMy4zLTIuNyw2LTYsNkgxOWMtMy4zLDAtNi0yLjctNi02SDljMCw1LjUsNC41LDEwLDEwLDEwaDEwYzUuNSwwLDEwLTQuNSwxMC0xMFYyM2gtNFYzNXoiLz4mI3hhOyAgICAgICAgPHBvbHlnb24gcG9pbnRzPSIzMC42LDI2IDM3LDE3LjYgNDMuNCwyNiIvPiYjeGE7ICAgIDwvZz4mI3hhOzwvc3ZnPg==" vertex="1" parent="1">
          <mxGeometry x="110" y="612" width="48" height="48" as="geometry" />
        </mxCell>
        <mxCell id="t_mzuNe1XYrUj1BvsxeK-58" style="edgeStyle=orthogonalEdgeStyle;rounded=0;orthogonalLoop=1;jettySize=auto;html=1;exitX=0.5;exitY=1;exitDx=0;exitDy=0;entryX=0.5;entryY=0;entryDx=0;entryDy=0;fontSize=12;" edge="1" parent="1" source="t_mzuNe1XYrUj1BvsxeK-11" target="t_mzuNe1XYrUj1BvsxeK-50">
          <mxGeometry relative="1" as="geometry" />
        </mxCell>
        <mxCell id="t_mzuNe1XYrUj1BvsxeK-11" value="Station 3" style="shape=image;verticalLabelPosition=bottom;verticalAlign=top;imageAspect=0;aspect=fixed;image=data:image/svg+xml,PHN2ZyB4bWxucz0iaHR0cDovL3d3dy53My5vcmcvMjAwMC9zdmciIHZlcnNpb249IjEiIHZpZXdCb3g9IjAgMCA0OCA0OCIgZW5hYmxlLWJhY2tncm91bmQ9Im5ldyAwIDAgNDggNDgiPiYjeGE7ICAgIDxnIGZpbGw9IiMxNTY1QzAiPiYjeGE7ICAgICAgICA8cGF0aCBkPSJNMTMsMTNjMC0zLjMsMi43LTYsNi02aDEwYzMuMywwLDYsMi43LDYsNmg0YzAtNS41LTQuNS0xMC0xMC0xMEgxOUMxMy41LDMsOSw3LjUsOSwxM3YxMS4yaDRWMTN6Ii8+JiN4YTsgICAgICAgIDxwb2x5Z29uIHBvaW50cz0iNC42LDIyIDExLDMwLjQgMTcuNCwyMiIvPiYjeGE7ICAgIDwvZz4mI3hhOyAgICA8ZyBmaWxsPSIjMTU2NUMwIj4mI3hhOyAgICAgICAgPHBhdGggZD0iTTM1LDM1YzAsMy4zLTIuNyw2LTYsNkgxOWMtMy4zLDAtNi0yLjctNi02SDljMCw1LjUsNC41LDEwLDEwLDEwaDEwYzUuNSwwLDEwLTQuNSwxMC0xMFYyM2gtNFYzNXoiLz4mI3hhOyAgICAgICAgPHBvbHlnb24gcG9pbnRzPSIzMC42LDI2IDM3LDE3LjYgNDMuNCwyNiIvPiYjeGE7ICAgIDwvZz4mI3hhOzwvc3ZnPg==" vertex="1" parent="1">
          <mxGeometry x="180" y="612" width="48" height="48" as="geometry" />
        </mxCell>
        <mxCell id="t_mzuNe1XYrUj1BvsxeK-59" style="edgeStyle=orthogonalEdgeStyle;rounded=0;orthogonalLoop=1;jettySize=auto;html=1;exitX=0.5;exitY=1;exitDx=0;exitDy=0;entryX=0.5;entryY=0;entryDx=0;entryDy=0;fontSize=12;" edge="1" parent="1" source="t_mzuNe1XYrUj1BvsxeK-12" target="t_mzuNe1XYrUj1BvsxeK-51">
          <mxGeometry relative="1" as="geometry" />
        </mxCell>
        <mxCell id="t_mzuNe1XYrUj1BvsxeK-12" value="Station 4" style="shape=image;verticalLabelPosition=bottom;verticalAlign=top;imageAspect=0;aspect=fixed;image=data:image/svg+xml,PHN2ZyB4bWxucz0iaHR0cDovL3d3dy53My5vcmcvMjAwMC9zdmciIHZlcnNpb249IjEiIHZpZXdCb3g9IjAgMCA0OCA0OCIgZW5hYmxlLWJhY2tncm91bmQ9Im5ldyAwIDAgNDggNDgiPiYjeGE7ICAgIDxnIGZpbGw9IiMxNTY1QzAiPiYjeGE7ICAgICAgICA8cGF0aCBkPSJNMTMsMTNjMC0zLjMsMi43LTYsNi02aDEwYzMuMywwLDYsMi43LDYsNmg0YzAtNS41LTQuNS0xMC0xMC0xMEgxOUMxMy41LDMsOSw3LjUsOSwxM3YxMS4yaDRWMTN6Ii8+JiN4YTsgICAgICAgIDxwb2x5Z29uIHBvaW50cz0iNC42LDIyIDExLDMwLjQgMTcuNCwyMiIvPiYjeGE7ICAgIDwvZz4mI3hhOyAgICA8ZyBmaWxsPSIjMTU2NUMwIj4mI3hhOyAgICAgICAgPHBhdGggZD0iTTM1LDM1YzAsMy4zLTIuNyw2LTYsNkgxOWMtMy4zLDAtNi0yLjctNi02SDljMCw1LjUsNC41LDEwLDEwLDEwaDEwYzUuNSwwLDEwLTQuNSwxMC0xMFYyM2gtNFYzNXoiLz4mI3hhOyAgICAgICAgPHBvbHlnb24gcG9pbnRzPSIzMC42LDI2IDM3LDE3LjYgNDMuNCwyNiIvPiYjeGE7ICAgIDwvZz4mI3hhOzwvc3ZnPg==" vertex="1" parent="1">
          <mxGeometry x="259" y="612" width="48" height="48" as="geometry" />
        </mxCell>
        <mxCell id="t_mzuNe1XYrUj1BvsxeK-13" value="&lt;font size=&quot;1&quot; style=&quot;&quot;&gt;&lt;b style=&quot;font-size: 19px;&quot;&gt;etc...&lt;/b&gt;&lt;/font&gt;" style="text;html=1;strokeColor=none;fillColor=none;align=center;verticalAlign=middle;whiteSpace=wrap;rounded=0;" vertex="1" parent="1">
          <mxGeometry x="330" y="612" width="60" height="30" as="geometry" />
        </mxCell>
        <mxCell id="t_mzuNe1XYrUj1BvsxeK-16" value="" style="endArrow=classic;startArrow=classic;html=1;rounded=0;fontSize=19;entryX=1;entryY=1;entryDx=0;entryDy=0;exitX=0.5;exitY=0;exitDx=0;exitDy=0;" edge="1" parent="1" source="t_mzuNe1XYrUj1BvsxeK-48" target="t_mzuNe1XYrUj1BvsxeK-7">
          <mxGeometry width="50" height="50" relative="1" as="geometry">
            <mxPoint x="77.99999999999977" y="636" as="sourcePoint" />
            <mxPoint x="180" y="482" as="targetPoint" />
          </mxGeometry>
        </mxCell>
        <mxCell id="t_mzuNe1XYrUj1BvsxeK-17" value="" style="endArrow=classic;startArrow=classic;html=1;rounded=0;fontSize=19;exitX=0.5;exitY=0;exitDx=0;exitDy=0;entryX=1;entryY=0.75;entryDx=0;entryDy=0;" edge="1" parent="1" source="t_mzuNe1XYrUj1BvsxeK-10" target="t_mzuNe1XYrUj1BvsxeK-7">
          <mxGeometry width="50" height="50" relative="1" as="geometry">
            <mxPoint x="500" y="632" as="sourcePoint" />
            <mxPoint x="240" y="512" as="targetPoint" />
          </mxGeometry>
        </mxCell>
        <mxCell id="t_mzuNe1XYrUj1BvsxeK-18" value="" style="endArrow=classic;startArrow=classic;html=1;rounded=0;fontSize=19;entryX=1;entryY=0.5;entryDx=0;entryDy=0;exitX=0.5;exitY=0;exitDx=0;exitDy=0;" edge="1" parent="1" source="t_mzuNe1XYrUj1BvsxeK-11" target="t_mzuNe1XYrUj1BvsxeK-7">
          <mxGeometry width="50" height="50" relative="1" as="geometry">
            <mxPoint x="500" y="632" as="sourcePoint" />
            <mxPoint x="550" y="582" as="targetPoint" />
          </mxGeometry>
        </mxCell>
        <mxCell id="t_mzuNe1XYrUj1BvsxeK-19" value="" style="endArrow=classic;startArrow=classic;html=1;rounded=0;fontSize=19;exitX=0.5;exitY=0;exitDx=0;exitDy=0;entryX=1;entryY=0.25;entryDx=0;entryDy=0;" edge="1" parent="1" source="t_mzuNe1XYrUj1BvsxeK-12" target="t_mzuNe1XYrUj1BvsxeK-7">
          <mxGeometry width="50" height="50" relative="1" as="geometry">
            <mxPoint x="500" y="632" as="sourcePoint" />
            <mxPoint x="290" y="512" as="targetPoint" />
          </mxGeometry>
        </mxCell>
        <mxCell id="t_mzuNe1XYrUj1BvsxeK-20" value="" style="endArrow=classic;startArrow=classic;html=1;rounded=0;fontSize=19;exitX=0.5;exitY=0;exitDx=0;exitDy=0;entryX=1;entryY=0;entryDx=0;entryDy=0;" edge="1" parent="1" source="t_mzuNe1XYrUj1BvsxeK-13" target="t_mzuNe1XYrUj1BvsxeK-7">
          <mxGeometry width="50" height="50" relative="1" as="geometry">
            <mxPoint x="500" y="632" as="sourcePoint" />
            <mxPoint x="380" y="502" as="targetPoint" />
          </mxGeometry>
        </mxCell>
        <mxCell id="t_mzuNe1XYrUj1BvsxeK-24" value="&lt;font style=&quot;font-size: 12px;&quot;&gt;Project&lt;/font&gt;" style="text;html=1;strokeColor=none;fillColor=none;align=center;verticalAlign=middle;whiteSpace=wrap;rounded=0;fontSize=19;" vertex="1" parent="1">
          <mxGeometry x="394" y="324" width="60" height="30" as="geometry" />
        </mxCell>
        <mxCell id="t_mzuNe1XYrUj1BvsxeK-29" value="" style="endArrow=classic;startArrow=classic;html=1;rounded=0;fontSize=19;exitX=0;exitY=0.5;exitDx=0;exitDy=0;entryX=1;entryY=1;entryDx=0;entryDy=0;" edge="1" parent="1" source="t_mzuNe1XYrUj1BvsxeK-7" target="t_mzuNe1XYrUj1BvsxeK-69">
          <mxGeometry width="50" height="50" relative="1" as="geometry">
            <mxPoint x="44" y="800" as="sourcePoint" />
            <mxPoint x="330" y="360" as="targetPoint" />
          </mxGeometry>
        </mxCell>
        <mxCell id="t_mzuNe1XYrUj1BvsxeK-30" value="" style="shape=image;verticalLabelPosition=bottom;verticalAlign=top;imageAspect=0;aspect=fixed;image=data:image/svg+xml,PHN2ZyB4bWxucz0iaHR0cDovL3d3dy53My5vcmcvMjAwMC9zdmciIHZlcnNpb249IjEiIHZpZXdCb3g9IjAgMCA0OCA0OCIgZW5hYmxlLWJhY2tncm91bmQ9Im5ldyAwIDAgNDggNDgiPiYjeGE7ICAgIDxwb2x5Z29uIGZpbGw9IiM5MENBRjkiIHBvaW50cz0iMzYsMTMgMzYsOSAyMiw5IDIyLDIyIDEzLDIyIDEzLDI2IDIyLDI2IDIyLDM5IDM2LDM5IDM2LDM1IDI2LDM1IDI2LDI2IDM2LDI2IDM2LDIyIDI2LDIyIDI2LDEzIi8+JiN4YTsgICAgPHJlY3QgeD0iNiIgeT0iMTciIGZpbGw9IiNEODFCNjAiIHdpZHRoPSIxMCIgaGVpZ2h0PSIxNCIvPiYjeGE7ICAgIDxyZWN0IHg9IjMyIiB5PSI2IiBmaWxsPSIjMjE5NkYzIiB3aWR0aD0iMTAiIGhlaWdodD0iMTAiLz4mI3hhOyAgICA8cmVjdCB4PSIzMiIgeT0iMzIiIGZpbGw9IiMyMTk2RjMiIHdpZHRoPSIxMCIgaGVpZ2h0PSIxMCIvPiYjeGE7ICAgIDxyZWN0IHg9IjMyIiB5PSIxOSIgZmlsbD0iIzIxOTZGMyIgd2lkdGg9IjEwIiBoZWlnaHQ9IjEwIi8+JiN4YTs8L3N2Zz4=;rotation=90;" vertex="1" parent="1">
          <mxGeometry x="569" y="432" width="48" height="48" as="geometry" />
        </mxCell>
        <mxCell id="t_mzuNe1XYrUj1BvsxeK-31" value="Plant 2" style="text;html=1;strokeColor=none;fillColor=none;align=center;verticalAlign=middle;whiteSpace=wrap;rounded=0;" vertex="1" parent="1">
          <mxGeometry x="604" y="441" width="60" height="30" as="geometry" />
        </mxCell>
        <mxCell id="t_mzuNe1XYrUj1BvsxeK-60" style="edgeStyle=orthogonalEdgeStyle;rounded=0;orthogonalLoop=1;jettySize=auto;html=1;exitX=0.5;exitY=1;exitDx=0;exitDy=0;entryX=0.5;entryY=0;entryDx=0;entryDy=0;fontSize=12;" edge="1" parent="1" source="t_mzuNe1XYrUj1BvsxeK-32" target="t_mzuNe1XYrUj1BvsxeK-52">
          <mxGeometry relative="1" as="geometry" />
        </mxCell>
        <mxCell id="t_mzuNe1XYrUj1BvsxeK-32" value="Station 1" style="shape=image;verticalLabelPosition=bottom;verticalAlign=top;imageAspect=0;aspect=fixed;image=data:image/svg+xml,PHN2ZyB4bWxucz0iaHR0cDovL3d3dy53My5vcmcvMjAwMC9zdmciIHZlcnNpb249IjEiIHZpZXdCb3g9IjAgMCA0OCA0OCIgZW5hYmxlLWJhY2tncm91bmQ9Im5ldyAwIDAgNDggNDgiPiYjeGE7ICAgIDxnIGZpbGw9IiMxNTY1QzAiPiYjeGE7ICAgICAgICA8cGF0aCBkPSJNMTMsMTNjMC0zLjMsMi43LTYsNi02aDEwYzMuMywwLDYsMi43LDYsNmg0YzAtNS41LTQuNS0xMC0xMC0xMEgxOUMxMy41LDMsOSw3LjUsOSwxM3YxMS4yaDRWMTN6Ii8+JiN4YTsgICAgICAgIDxwb2x5Z29uIHBvaW50cz0iNC42LDIyIDExLDMwLjQgMTcuNCwyMiIvPiYjeGE7ICAgIDwvZz4mI3hhOyAgICA8ZyBmaWxsPSIjMTU2NUMwIj4mI3hhOyAgICAgICAgPHBhdGggZD0iTTM1LDM1YzAsMy4zLTIuNyw2LTYsNkgxOWMtMy4zLDAtNi0yLjctNi02SDljMCw1LjUsNC41LDEwLDEwLDEwaDEwYzUuNSwwLDEwLTQuNSwxMC0xMFYyM2gtNFYzNXoiLz4mI3hhOyAgICAgICAgPHBvbHlnb24gcG9pbnRzPSIzMC42LDI2IDM3LDE3LjYgNDMuNCwyNiIvPiYjeGE7ICAgIDwvZz4mI3hhOzwvc3ZnPg==" vertex="1" parent="1">
          <mxGeometry x="430" y="612" width="48" height="48" as="geometry" />
        </mxCell>
        <mxCell id="t_mzuNe1XYrUj1BvsxeK-61" style="edgeStyle=orthogonalEdgeStyle;rounded=0;orthogonalLoop=1;jettySize=auto;html=1;exitX=0.5;exitY=1;exitDx=0;exitDy=0;entryX=0.5;entryY=0;entryDx=0;entryDy=0;fontSize=12;" edge="1" parent="1" source="t_mzuNe1XYrUj1BvsxeK-33" target="t_mzuNe1XYrUj1BvsxeK-53">
          <mxGeometry relative="1" as="geometry" />
        </mxCell>
        <mxCell id="t_mzuNe1XYrUj1BvsxeK-33" value="Station 2" style="shape=image;verticalLabelPosition=bottom;verticalAlign=top;imageAspect=0;aspect=fixed;image=data:image/svg+xml,PHN2ZyB4bWxucz0iaHR0cDovL3d3dy53My5vcmcvMjAwMC9zdmciIHZlcnNpb249IjEiIHZpZXdCb3g9IjAgMCA0OCA0OCIgZW5hYmxlLWJhY2tncm91bmQ9Im5ldyAwIDAgNDggNDgiPiYjeGE7ICAgIDxnIGZpbGw9IiMxNTY1QzAiPiYjeGE7ICAgICAgICA8cGF0aCBkPSJNMTMsMTNjMC0zLjMsMi43LTYsNi02aDEwYzMuMywwLDYsMi43LDYsNmg0YzAtNS41LTQuNS0xMC0xMC0xMEgxOUMxMy41LDMsOSw3LjUsOSwxM3YxMS4yaDRWMTN6Ii8+JiN4YTsgICAgICAgIDxwb2x5Z29uIHBvaW50cz0iNC42LDIyIDExLDMwLjQgMTcuNCwyMiIvPiYjeGE7ICAgIDwvZz4mI3hhOyAgICA8ZyBmaWxsPSIjMTU2NUMwIj4mI3hhOyAgICAgICAgPHBhdGggZD0iTTM1LDM1YzAsMy4zLTIuNyw2LTYsNkgxOWMtMy4zLDAtNi0yLjctNi02SDljMCw1LjUsNC41LDEwLDEwLDEwaDEwYzUuNSwwLDEwLTQuNSwxMC0xMFYyM2gtNFYzNXoiLz4mI3hhOyAgICAgICAgPHBvbHlnb24gcG9pbnRzPSIzMC42LDI2IDM3LDE3LjYgNDMuNCwyNiIvPiYjeGE7ICAgIDwvZz4mI3hhOzwvc3ZnPg==" vertex="1" parent="1">
          <mxGeometry x="502" y="612" width="48" height="48" as="geometry" />
        </mxCell>
        <mxCell id="t_mzuNe1XYrUj1BvsxeK-62" style="edgeStyle=orthogonalEdgeStyle;rounded=0;orthogonalLoop=1;jettySize=auto;html=1;entryX=0.5;entryY=0;entryDx=0;entryDy=0;fontSize=12;" edge="1" parent="1" source="t_mzuNe1XYrUj1BvsxeK-34">
          <mxGeometry relative="1" as="geometry">
            <mxPoint x="598" y="720" as="targetPoint" />
          </mxGeometry>
        </mxCell>
        <mxCell id="t_mzuNe1XYrUj1BvsxeK-34" value="Station 3" style="shape=image;verticalLabelPosition=bottom;verticalAlign=top;imageAspect=0;aspect=fixed;image=data:image/svg+xml,PHN2ZyB4bWxucz0iaHR0cDovL3d3dy53My5vcmcvMjAwMC9zdmciIHZlcnNpb249IjEiIHZpZXdCb3g9IjAgMCA0OCA0OCIgZW5hYmxlLWJhY2tncm91bmQ9Im5ldyAwIDAgNDggNDgiPiYjeGE7ICAgIDxnIGZpbGw9IiMxNTY1QzAiPiYjeGE7ICAgICAgICA8cGF0aCBkPSJNMTMsMTNjMC0zLjMsMi43LTYsNi02aDEwYzMuMywwLDYsMi43LDYsNmg0YzAtNS41LTQuNS0xMC0xMC0xMEgxOUMxMy41LDMsOSw3LjUsOSwxM3YxMS4yaDRWMTN6Ii8+JiN4YTsgICAgICAgIDxwb2x5Z29uIHBvaW50cz0iNC42LDIyIDExLDMwLjQgMTcuNCwyMiIvPiYjeGE7ICAgIDwvZz4mI3hhOyAgICA8ZyBmaWxsPSIjMTU2NUMwIj4mI3hhOyAgICAgICAgPHBhdGggZD0iTTM1LDM1YzAsMy4zLTIuNyw2LTYsNkgxOWMtMy4zLDAtNi0yLjctNi02SDljMCw1LjUsNC41LDEwLDEwLDEwaDEwYzUuNSwwLDEwLTQuNSwxMC0xMFYyM2gtNFYzNXoiLz4mI3hhOyAgICAgICAgPHBvbHlnb24gcG9pbnRzPSIzMC42LDI2IDM3LDE3LjYgNDMuNCwyNiIvPiYjeGE7ICAgIDwvZz4mI3hhOzwvc3ZnPg==" vertex="1" parent="1">
          <mxGeometry x="574" y="612" width="48" height="48" as="geometry" />
        </mxCell>
        <mxCell id="t_mzuNe1XYrUj1BvsxeK-64" style="edgeStyle=orthogonalEdgeStyle;rounded=0;orthogonalLoop=1;jettySize=auto;html=1;exitX=0.5;exitY=1;exitDx=0;exitDy=0;entryX=0.5;entryY=0;entryDx=0;entryDy=0;fontSize=12;" edge="1" parent="1" source="t_mzuNe1XYrUj1BvsxeK-35" target="t_mzuNe1XYrUj1BvsxeK-55">
          <mxGeometry relative="1" as="geometry" />
        </mxCell>
        <mxCell id="t_mzuNe1XYrUj1BvsxeK-35" value="Station 4" style="shape=image;verticalLabelPosition=bottom;verticalAlign=top;imageAspect=0;aspect=fixed;image=data:image/svg+xml,PHN2ZyB4bWxucz0iaHR0cDovL3d3dy53My5vcmcvMjAwMC9zdmciIHZlcnNpb249IjEiIHZpZXdCb3g9IjAgMCA0OCA0OCIgZW5hYmxlLWJhY2tncm91bmQ9Im5ldyAwIDAgNDggNDgiPiYjeGE7ICAgIDxnIGZpbGw9IiMxNTY1QzAiPiYjeGE7ICAgICAgICA8cGF0aCBkPSJNMTMsMTNjMC0zLjMsMi43LTYsNi02aDEwYzMuMywwLDYsMi43LDYsNmg0YzAtNS41LTQuNS0xMC0xMC0xMEgxOUMxMy41LDMsOSw3LjUsOSwxM3YxMS4yaDRWMTN6Ii8+JiN4YTsgICAgICAgIDxwb2x5Z29uIHBvaW50cz0iNC42LDIyIDExLDMwLjQgMTcuNCwyMiIvPiYjeGE7ICAgIDwvZz4mI3hhOyAgICA8ZyBmaWxsPSIjMTU2NUMwIj4mI3hhOyAgICAgICAgPHBhdGggZD0iTTM1LDM1YzAsMy4zLTIuNyw2LTYsNkgxOWMtMy4zLDAtNi0yLjctNi02SDljMCw1LjUsNC41LDEwLDEwLDEwaDEwYzUuNSwwLDEwLTQuNSwxMC0xMFYyM2gtNFYzNXoiLz4mI3hhOyAgICAgICAgPHBvbHlnb24gcG9pbnRzPSIzMC42LDI2IDM3LDE3LjYgNDMuNCwyNiIvPiYjeGE7ICAgIDwvZz4mI3hhOzwvc3ZnPg==" vertex="1" parent="1">
          <mxGeometry x="640" y="612" width="48" height="48" as="geometry" />
        </mxCell>
        <mxCell id="t_mzuNe1XYrUj1BvsxeK-36" value="&lt;font size=&quot;1&quot; style=&quot;&quot;&gt;&lt;b style=&quot;font-size: 19px;&quot;&gt;etc...&lt;/b&gt;&lt;/font&gt;" style="text;html=1;strokeColor=none;fillColor=none;align=center;verticalAlign=middle;whiteSpace=wrap;rounded=0;" vertex="1" parent="1">
          <mxGeometry x="710" y="612" width="60" height="30" as="geometry" />
        </mxCell>
        <mxCell id="t_mzuNe1XYrUj1BvsxeK-37" value="" style="endArrow=classic;startArrow=classic;html=1;rounded=0;fontSize=19;exitX=0.5;exitY=0;exitDx=0;exitDy=0;entryX=1;entryY=1;entryDx=0;entryDy=0;" edge="1" parent="1" source="t_mzuNe1XYrUj1BvsxeK-32" target="t_mzuNe1XYrUj1BvsxeK-30">
          <mxGeometry width="50" height="50" relative="1" as="geometry">
            <mxPoint x="876" y="641" as="sourcePoint" />
            <mxPoint x="556" y="491" as="targetPoint" />
          </mxGeometry>
        </mxCell>
        <mxCell id="t_mzuNe1XYrUj1BvsxeK-38" value="" style="endArrow=classic;startArrow=classic;html=1;rounded=0;fontSize=19;exitX=0.5;exitY=0;exitDx=0;exitDy=0;entryX=1;entryY=0.75;entryDx=0;entryDy=0;" edge="1" parent="1" source="t_mzuNe1XYrUj1BvsxeK-33" target="t_mzuNe1XYrUj1BvsxeK-30">
          <mxGeometry width="50" height="50" relative="1" as="geometry">
            <mxPoint x="876" y="641" as="sourcePoint" />
            <mxPoint x="616" y="521" as="targetPoint" />
          </mxGeometry>
        </mxCell>
        <mxCell id="t_mzuNe1XYrUj1BvsxeK-39" value="" style="endArrow=classic;startArrow=classic;html=1;rounded=0;fontSize=19;entryX=1;entryY=0.5;entryDx=0;entryDy=0;exitX=0.5;exitY=0;exitDx=0;exitDy=0;" edge="1" parent="1" source="t_mzuNe1XYrUj1BvsxeK-34" target="t_mzuNe1XYrUj1BvsxeK-30">
          <mxGeometry width="50" height="50" relative="1" as="geometry">
            <mxPoint x="876" y="641" as="sourcePoint" />
            <mxPoint x="926" y="591" as="targetPoint" />
          </mxGeometry>
        </mxCell>
        <mxCell id="t_mzuNe1XYrUj1BvsxeK-40" value="" style="endArrow=classic;startArrow=classic;html=1;rounded=0;fontSize=19;exitX=0.5;exitY=0;exitDx=0;exitDy=0;entryX=1;entryY=0.25;entryDx=0;entryDy=0;" edge="1" parent="1" source="t_mzuNe1XYrUj1BvsxeK-35" target="t_mzuNe1XYrUj1BvsxeK-30">
          <mxGeometry width="50" height="50" relative="1" as="geometry">
            <mxPoint x="876" y="641" as="sourcePoint" />
            <mxPoint x="666" y="521" as="targetPoint" />
          </mxGeometry>
        </mxCell>
        <mxCell id="t_mzuNe1XYrUj1BvsxeK-41" value="" style="endArrow=classic;startArrow=classic;html=1;rounded=0;fontSize=19;exitX=0.5;exitY=0;exitDx=0;exitDy=0;entryX=1;entryY=0;entryDx=0;entryDy=0;" edge="1" parent="1" source="t_mzuNe1XYrUj1BvsxeK-36" target="t_mzuNe1XYrUj1BvsxeK-30">
          <mxGeometry width="50" height="50" relative="1" as="geometry">
            <mxPoint x="876" y="641" as="sourcePoint" />
            <mxPoint x="756" y="511" as="targetPoint" />
          </mxGeometry>
        </mxCell>
        <mxCell id="t_mzuNe1XYrUj1BvsxeK-42" value="" style="endArrow=classic;startArrow=classic;html=1;rounded=0;fontSize=12;exitX=0;exitY=0.5;exitDx=0;exitDy=0;entryX=1;entryY=0.5;entryDx=0;entryDy=0;" edge="1" parent="1" source="t_mzuNe1XYrUj1BvsxeK-30" target="t_mzuNe1XYrUj1BvsxeK-69">
          <mxGeometry width="50" height="50" relative="1" as="geometry">
            <mxPoint x="410" y="630" as="sourcePoint" />
            <mxPoint x="390" y="390" as="targetPoint" />
          </mxGeometry>
        </mxCell>
        <mxCell id="t_mzuNe1XYrUj1BvsxeK-45" value="&lt;font size=&quot;1&quot; style=&quot;&quot;&gt;&lt;b style=&quot;font-size: 19px;&quot;&gt;etc...&lt;/b&gt;&lt;/font&gt;" style="text;html=1;strokeColor=none;fillColor=none;align=center;verticalAlign=middle;whiteSpace=wrap;rounded=0;" vertex="1" parent="1">
          <mxGeometry x="860" y="432" width="60" height="30" as="geometry" />
        </mxCell>
        <mxCell id="t_mzuNe1XYrUj1BvsxeK-47" value="" style="endArrow=classic;startArrow=classic;html=1;rounded=0;fontSize=12;exitX=0.5;exitY=0;exitDx=0;exitDy=0;entryX=1;entryY=0;entryDx=0;entryDy=0;" edge="1" parent="1" source="t_mzuNe1XYrUj1BvsxeK-45" target="t_mzuNe1XYrUj1BvsxeK-69">
          <mxGeometry width="50" height="50" relative="1" as="geometry">
            <mxPoint x="410" y="630" as="sourcePoint" />
            <mxPoint x="480" y="340" as="targetPoint" />
          </mxGeometry>
        </mxCell>
        <mxCell id="t_mzuNe1XYrUj1BvsxeK-68" style="edgeStyle=orthogonalEdgeStyle;rounded=0;orthogonalLoop=1;jettySize=auto;html=1;exitX=0.5;exitY=1;exitDx=0;exitDy=0;entryX=0.5;entryY=0;entryDx=0;entryDy=0;fontSize=12;" edge="1" parent="1" source="t_mzuNe1XYrUj1BvsxeK-48" target="Z3iqH2klsmwGmlw7B8To-29">
          <mxGeometry relative="1" as="geometry" />
        </mxCell>
        <mxCell id="t_mzuNe1XYrUj1BvsxeK-48" value="Station 1" style="shape=image;verticalLabelPosition=bottom;verticalAlign=top;imageAspect=0;aspect=fixed;image=data:image/svg+xml,PHN2ZyB4bWxucz0iaHR0cDovL3d3dy53My5vcmcvMjAwMC9zdmciIHZlcnNpb249IjEiIHZpZXdCb3g9IjAgMCA0OCA0OCIgZW5hYmxlLWJhY2tncm91bmQ9Im5ldyAwIDAgNDggNDgiPiYjeGE7ICAgIDxnIGZpbGw9IiMxNTY1QzAiPiYjeGE7ICAgICAgICA8cGF0aCBkPSJNMTMsMTNjMC0zLjMsMi43LTYsNi02aDEwYzMuMywwLDYsMi43LDYsNmg0YzAtNS41LTQuNS0xMC0xMC0xMEgxOUMxMy41LDMsOSw3LjUsOSwxM3YxMS4yaDRWMTN6Ii8+JiN4YTsgICAgICAgIDxwb2x5Z29uIHBvaW50cz0iNC42LDIyIDExLDMwLjQgMTcuNCwyMiIvPiYjeGE7ICAgIDwvZz4mI3hhOyAgICA8ZyBmaWxsPSIjMTU2NUMwIj4mI3hhOyAgICAgICAgPHBhdGggZD0iTTM1LDM1YzAsMy4zLTIuNyw2LTYsNkgxOWMtMy4zLDAtNi0yLjctNi02SDljMCw1LjUsNC41LDEwLDEwLDEwaDEwYzUuNSwwLDEwLTQuNSwxMC0xMFYyM2gtNFYzNXoiLz4mI3hhOyAgICAgICAgPHBvbHlnb24gcG9pbnRzPSIzMC42LDI2IDM3LDE3LjYgNDMuNCwyNiIvPiYjeGE7ICAgIDwvZz4mI3hhOzwvc3ZnPg==" vertex="1" parent="1">
          <mxGeometry x="40" y="612" width="48" height="48" as="geometry" />
        </mxCell>
        <mxCell id="t_mzuNe1XYrUj1BvsxeK-49" value="PLC" style="shape=image;verticalLabelPosition=bottom;verticalAlign=top;imageAspect=0;aspect=fixed;image=data:image/svg+xml,PHN2ZyB4bWxucz0iaHR0cDovL3d3dy53My5vcmcvMjAwMC9zdmciIHZlcnNpb249IjEiIHZpZXdCb3g9IjAgMCA0OCA0OCIgZW5hYmxlLWJhY2tncm91bmQ9Im5ldyAwIDAgNDggNDgiPiYjeGE7ICAgIDxwYXRoIGZpbGw9IiNFNjUxMDAiIGQ9Ik0yNS42LDM0LjRjMC4xLTAuNCwwLjEtMC45LDAuMS0xLjRzMC0wLjktMC4xLTEuNGwyLjgtMmMwLjMtMC4yLDAuNC0wLjYsMC4yLTAuOWwtMi43LTQuNiBjLTAuMi0wLjMtMC41LTAuNC0wLjgtMC4zTDIyLDI1LjNjLTAuNy0wLjYtMS41LTEtMi40LTEuNGwtMC4zLTMuNGMwLTAuMy0wLjMtMC42LTAuNi0wLjZoLTUuM2MtMC4zLDAtMC42LDAuMy0wLjYsMC42TDEyLjQsMjQgYy0wLjksMC4zLTEuNiwwLjgtMi40LDEuNGwtMy4xLTEuNGMtMC4zLTAuMS0wLjcsMC0wLjgsMC4zbC0yLjcsNC42Yy0wLjIsMC4zLTAuMSwwLjcsMC4yLDAuOWwyLjgsMmMtMC4xLDAuNC0wLjEsMC45LTAuMSwxLjQgczAsMC45LDAuMSwxLjRsLTIuOCwyYy0wLjMsMC4yLTAuNCwwLjYtMC4yLDAuOWwyLjcsNC42YzAuMiwwLjMsMC41LDAuNCwwLjgsMC4zbDMuMS0xLjRjMC43LDAuNiwxLjUsMSwyLjQsMS40bDAuMywzLjQgYzAsMC4zLDAuMywwLjYsMC42LDAuNmg1LjNjMC4zLDAsMC42LTAuMywwLjYtMC42bDAuMy0zLjRjMC45LTAuMywxLjYtMC44LDIuNC0xLjRsMy4xLDEuNGMwLjMsMC4xLDAuNywwLDAuOC0wLjNsMi43LTQuNiBjMC4yLTAuMywwLjEtMC43LTAuMi0wLjlMMjUuNiwzNC40eiBNMTYsMzhjLTIuOCwwLTUtMi4yLTUtNWMwLTIuOCwyLjItNSw1LTVjMi44LDAsNSwyLjIsNSw1QzIxLDM1LjgsMTguOCwzOCwxNiwzOHoiLz4mI3hhOyAgICA8cGF0aCBmaWxsPSIjRkZBMDAwIiBkPSJNNDEuOSwxNS4zQzQyLDE0LjgsNDIsMTQuNCw0MiwxNHMwLTAuOC0wLjEtMS4zbDIuNS0xLjhjMC4zLTAuMiwwLjMtMC41LDAuMi0wLjhsLTIuNS00LjMgYy0wLjItMC4zLTAuNS0wLjQtMC44LTAuMmwtMi45LDEuM2MtMC43LTAuNS0xLjQtMC45LTIuMi0xLjNsLTAuMy0zLjFDMzYsMi4yLDM1LjgsMiwzNS41LDJoLTQuOWMtMC4zLDAtMC42LDAuMi0wLjYsMC41bC0wLjMsMy4xIGMtMC44LDAuMy0xLjUsMC43LTIuMiwxLjNsLTIuOS0xLjNjLTAuMy0wLjEtMC42LDAtMC44LDAuMmwtMi41LDQuM2MtMC4yLDAuMy0wLjEsMC42LDAuMiwwLjhsMi41LDEuOEMyNCwxMy4yLDI0LDEzLjYsMjQsMTQgczAsMC44LDAuMSwxLjNsLTIuNSwxLjhjLTAuMywwLjItMC4zLDAuNS0wLjIsMC44bDIuNSw0LjNjMC4yLDAuMywwLjUsMC40LDAuOCwwLjJsMi45LTEuM2MwLjcsMC41LDEuNCwwLjksMi4yLDEuM2wwLjMsMy4xIGMwLDAuMywwLjMsMC41LDAuNiwwLjVoNC45YzAuMywwLDAuNi0wLjIsMC42LTAuNWwwLjMtMy4xYzAuOC0wLjMsMS41LTAuNywyLjItMS4zbDIuOSwxLjNjMC4zLDAuMSwwLjYsMCwwLjgtMC4ybDIuNS00LjMgYzAuMi0wLjMsMC4xLTAuNi0wLjItMC44TDQxLjksMTUuM3ogTTMzLDE5Yy0yLjgsMC01LTIuMi01LTVjMC0yLjgsMi4yLTUsNS01YzIuOCwwLDUsMi4yLDUsNUMzOCwxNi44LDM1LjgsMTksMzMsMTl6Ii8+JiN4YTs8L3N2Zz4=;rotation=0;" vertex="1" parent="1">
          <mxGeometry x="109" y="720" width="50" height="50" as="geometry" />
        </mxCell>
        <mxCell id="t_mzuNe1XYrUj1BvsxeK-50" value="PLC" style="shape=image;verticalLabelPosition=bottom;verticalAlign=top;imageAspect=0;aspect=fixed;image=data:image/svg+xml,PHN2ZyB4bWxucz0iaHR0cDovL3d3dy53My5vcmcvMjAwMC9zdmciIHZlcnNpb249IjEiIHZpZXdCb3g9IjAgMCA0OCA0OCIgZW5hYmxlLWJhY2tncm91bmQ9Im5ldyAwIDAgNDggNDgiPiYjeGE7ICAgIDxwYXRoIGZpbGw9IiNFNjUxMDAiIGQ9Ik0yNS42LDM0LjRjMC4xLTAuNCwwLjEtMC45LDAuMS0xLjRzMC0wLjktMC4xLTEuNGwyLjgtMmMwLjMtMC4yLDAuNC0wLjYsMC4yLTAuOWwtMi43LTQuNiBjLTAuMi0wLjMtMC41LTAuNC0wLjgtMC4zTDIyLDI1LjNjLTAuNy0wLjYtMS41LTEtMi40LTEuNGwtMC4zLTMuNGMwLTAuMy0wLjMtMC42LTAuNi0wLjZoLTUuM2MtMC4zLDAtMC42LDAuMy0wLjYsMC42TDEyLjQsMjQgYy0wLjksMC4zLTEuNiwwLjgtMi40LDEuNGwtMy4xLTEuNGMtMC4zLTAuMS0wLjcsMC0wLjgsMC4zbC0yLjcsNC42Yy0wLjIsMC4zLTAuMSwwLjcsMC4yLDAuOWwyLjgsMmMtMC4xLDAuNC0wLjEsMC45LTAuMSwxLjQgczAsMC45LDAuMSwxLjRsLTIuOCwyYy0wLjMsMC4yLTAuNCwwLjYtMC4yLDAuOWwyLjcsNC42YzAuMiwwLjMsMC41LDAuNCwwLjgsMC4zbDMuMS0xLjRjMC43LDAuNiwxLjUsMSwyLjQsMS40bDAuMywzLjQgYzAsMC4zLDAuMywwLjYsMC42LDAuNmg1LjNjMC4zLDAsMC42LTAuMywwLjYtMC42bDAuMy0zLjRjMC45LTAuMywxLjYtMC44LDIuNC0xLjRsMy4xLDEuNGMwLjMsMC4xLDAuNywwLDAuOC0wLjNsMi43LTQuNiBjMC4yLTAuMywwLjEtMC43LTAuMi0wLjlMMjUuNiwzNC40eiBNMTYsMzhjLTIuOCwwLTUtMi4yLTUtNWMwLTIuOCwyLjItNSw1LTVjMi44LDAsNSwyLjIsNSw1QzIxLDM1LjgsMTguOCwzOCwxNiwzOHoiLz4mI3hhOyAgICA8cGF0aCBmaWxsPSIjRkZBMDAwIiBkPSJNNDEuOSwxNS4zQzQyLDE0LjgsNDIsMTQuNCw0MiwxNHMwLTAuOC0wLjEtMS4zbDIuNS0xLjhjMC4zLTAuMiwwLjMtMC41LDAuMi0wLjhsLTIuNS00LjMgYy0wLjItMC4zLTAuNS0wLjQtMC44LTAuMmwtMi45LDEuM2MtMC43LTAuNS0xLjQtMC45LTIuMi0xLjNsLTAuMy0zLjFDMzYsMi4yLDM1LjgsMiwzNS41LDJoLTQuOWMtMC4zLDAtMC42LDAuMi0wLjYsMC41bC0wLjMsMy4xIGMtMC44LDAuMy0xLjUsMC43LTIuMiwxLjNsLTIuOS0xLjNjLTAuMy0wLjEtMC42LDAtMC44LDAuMmwtMi41LDQuM2MtMC4yLDAuMy0wLjEsMC42LDAuMiwwLjhsMi41LDEuOEMyNCwxMy4yLDI0LDEzLjYsMjQsMTQgczAsMC44LDAuMSwxLjNsLTIuNSwxLjhjLTAuMywwLjItMC4zLDAuNS0wLjIsMC44bDIuNSw0LjNjMC4yLDAuMywwLjUsMC40LDAuOCwwLjJsMi45LTEuM2MwLjcsMC41LDEuNCwwLjksMi4yLDEuM2wwLjMsMy4xIGMwLDAuMywwLjMsMC41LDAuNiwwLjVoNC45YzAuMywwLDAuNi0wLjIsMC42LTAuNWwwLjMtMy4xYzAuOC0wLjMsMS41LTAuNywyLjItMS4zbDIuOSwxLjNjMC4zLDAuMSwwLjYsMCwwLjgtMC4ybDIuNS00LjMgYzAuMi0wLjMsMC4xLTAuNi0wLjItMC44TDQxLjksMTUuM3ogTTMzLDE5Yy0yLjgsMC01LTIuMi01LTVjMC0yLjgsMi4yLTUsNS01YzIuOCwwLDUsMi4yLDUsNUMzOCwxNi44LDM1LjgsMTksMzMsMTl6Ii8+JiN4YTs8L3N2Zz4=;rotation=0;" vertex="1" parent="1">
          <mxGeometry x="179" y="720" width="50" height="50" as="geometry" />
        </mxCell>
        <mxCell id="t_mzuNe1XYrUj1BvsxeK-51" value="PLC" style="shape=image;verticalLabelPosition=bottom;verticalAlign=top;imageAspect=0;aspect=fixed;image=data:image/svg+xml,PHN2ZyB4bWxucz0iaHR0cDovL3d3dy53My5vcmcvMjAwMC9zdmciIHZlcnNpb249IjEiIHZpZXdCb3g9IjAgMCA0OCA0OCIgZW5hYmxlLWJhY2tncm91bmQ9Im5ldyAwIDAgNDggNDgiPiYjeGE7ICAgIDxwYXRoIGZpbGw9IiNFNjUxMDAiIGQ9Ik0yNS42LDM0LjRjMC4xLTAuNCwwLjEtMC45LDAuMS0xLjRzMC0wLjktMC4xLTEuNGwyLjgtMmMwLjMtMC4yLDAuNC0wLjYsMC4yLTAuOWwtMi43LTQuNiBjLTAuMi0wLjMtMC41LTAuNC0wLjgtMC4zTDIyLDI1LjNjLTAuNy0wLjYtMS41LTEtMi40LTEuNGwtMC4zLTMuNGMwLTAuMy0wLjMtMC42LTAuNi0wLjZoLTUuM2MtMC4zLDAtMC42LDAuMy0wLjYsMC42TDEyLjQsMjQgYy0wLjksMC4zLTEuNiwwLjgtMi40LDEuNGwtMy4xLTEuNGMtMC4zLTAuMS0wLjcsMC0wLjgsMC4zbC0yLjcsNC42Yy0wLjIsMC4zLTAuMSwwLjcsMC4yLDAuOWwyLjgsMmMtMC4xLDAuNC0wLjEsMC45LTAuMSwxLjQgczAsMC45LDAuMSwxLjRsLTIuOCwyYy0wLjMsMC4yLTAuNCwwLjYtMC4yLDAuOWwyLjcsNC42YzAuMiwwLjMsMC41LDAuNCwwLjgsMC4zbDMuMS0xLjRjMC43LDAuNiwxLjUsMSwyLjQsMS40bDAuMywzLjQgYzAsMC4zLDAuMywwLjYsMC42LDAuNmg1LjNjMC4zLDAsMC42LTAuMywwLjYtMC42bDAuMy0zLjRjMC45LTAuMywxLjYtMC44LDIuNC0xLjRsMy4xLDEuNGMwLjMsMC4xLDAuNywwLDAuOC0wLjNsMi43LTQuNiBjMC4yLTAuMywwLjEtMC43LTAuMi0wLjlMMjUuNiwzNC40eiBNMTYsMzhjLTIuOCwwLTUtMi4yLTUtNWMwLTIuOCwyLjItNSw1LTVjMi44LDAsNSwyLjIsNSw1QzIxLDM1LjgsMTguOCwzOCwxNiwzOHoiLz4mI3hhOyAgICA8cGF0aCBmaWxsPSIjRkZBMDAwIiBkPSJNNDEuOSwxNS4zQzQyLDE0LjgsNDIsMTQuNCw0MiwxNHMwLTAuOC0wLjEtMS4zbDIuNS0xLjhjMC4zLTAuMiwwLjMtMC41LDAuMi0wLjhsLTIuNS00LjMgYy0wLjItMC4zLTAuNS0wLjQtMC44LTAuMmwtMi45LDEuM2MtMC43LTAuNS0xLjQtMC45LTIuMi0xLjNsLTAuMy0zLjFDMzYsMi4yLDM1LjgsMiwzNS41LDJoLTQuOWMtMC4zLDAtMC42LDAuMi0wLjYsMC41bC0wLjMsMy4xIGMtMC44LDAuMy0xLjUsMC43LTIuMiwxLjNsLTIuOS0xLjNjLTAuMy0wLjEtMC42LDAtMC44LDAuMmwtMi41LDQuM2MtMC4yLDAuMy0wLjEsMC42LDAuMiwwLjhsMi41LDEuOEMyNCwxMy4yLDI0LDEzLjYsMjQsMTQgczAsMC44LDAuMSwxLjNsLTIuNSwxLjhjLTAuMywwLjItMC4zLDAuNS0wLjIsMC44bDIuNSw0LjNjMC4yLDAuMywwLjUsMC40LDAuOCwwLjJsMi45LTEuM2MwLjcsMC41LDEuNCwwLjksMi4yLDEuM2wwLjMsMy4xIGMwLDAuMywwLjMsMC41LDAuNiwwLjVoNC45YzAuMywwLDAuNi0wLjIsMC42LTAuNWwwLjMtMy4xYzAuOC0wLjMsMS41LTAuNywyLjItMS4zbDIuOSwxLjNjMC4zLDAuMSwwLjYsMCwwLjgtMC4ybDIuNS00LjMgYzAuMi0wLjMsMC4xLTAuNi0wLjItMC44TDQxLjksMTUuM3ogTTMzLDE5Yy0yLjgsMC01LTIuMi01LTVjMC0yLjgsMi4yLTUsNS01YzIuOCwwLDUsMi4yLDUsNUMzOCwxNi44LDM1LjgsMTksMzMsMTl6Ii8+JiN4YTs8L3N2Zz4=;rotation=0;" vertex="1" parent="1">
          <mxGeometry x="258" y="720" width="50" height="50" as="geometry" />
        </mxCell>
        <mxCell id="t_mzuNe1XYrUj1BvsxeK-52" value="PLC" style="shape=image;verticalLabelPosition=bottom;verticalAlign=top;imageAspect=0;aspect=fixed;image=data:image/svg+xml,PHN2ZyB4bWxucz0iaHR0cDovL3d3dy53My5vcmcvMjAwMC9zdmciIHZlcnNpb249IjEiIHZpZXdCb3g9IjAgMCA0OCA0OCIgZW5hYmxlLWJhY2tncm91bmQ9Im5ldyAwIDAgNDggNDgiPiYjeGE7ICAgIDxwYXRoIGZpbGw9IiNFNjUxMDAiIGQ9Ik0yNS42LDM0LjRjMC4xLTAuNCwwLjEtMC45LDAuMS0xLjRzMC0wLjktMC4xLTEuNGwyLjgtMmMwLjMtMC4yLDAuNC0wLjYsMC4yLTAuOWwtMi43LTQuNiBjLTAuMi0wLjMtMC41LTAuNC0wLjgtMC4zTDIyLDI1LjNjLTAuNy0wLjYtMS41LTEtMi40LTEuNGwtMC4zLTMuNGMwLTAuMy0wLjMtMC42LTAuNi0wLjZoLTUuM2MtMC4zLDAtMC42LDAuMy0wLjYsMC42TDEyLjQsMjQgYy0wLjksMC4zLTEuNiwwLjgtMi40LDEuNGwtMy4xLTEuNGMtMC4zLTAuMS0wLjcsMC0wLjgsMC4zbC0yLjcsNC42Yy0wLjIsMC4zLTAuMSwwLjcsMC4yLDAuOWwyLjgsMmMtMC4xLDAuNC0wLjEsMC45LTAuMSwxLjQgczAsMC45LDAuMSwxLjRsLTIuOCwyYy0wLjMsMC4yLTAuNCwwLjYtMC4yLDAuOWwyLjcsNC42YzAuMiwwLjMsMC41LDAuNCwwLjgsMC4zbDMuMS0xLjRjMC43LDAuNiwxLjUsMSwyLjQsMS40bDAuMywzLjQgYzAsMC4zLDAuMywwLjYsMC42LDAuNmg1LjNjMC4zLDAsMC42LTAuMywwLjYtMC42bDAuMy0zLjRjMC45LTAuMywxLjYtMC44LDIuNC0xLjRsMy4xLDEuNGMwLjMsMC4xLDAuNywwLDAuOC0wLjNsMi43LTQuNiBjMC4yLTAuMywwLjEtMC43LTAuMi0wLjlMMjUuNiwzNC40eiBNMTYsMzhjLTIuOCwwLTUtMi4yLTUtNWMwLTIuOCwyLjItNSw1LTVjMi44LDAsNSwyLjIsNSw1QzIxLDM1LjgsMTguOCwzOCwxNiwzOHoiLz4mI3hhOyAgICA8cGF0aCBmaWxsPSIjRkZBMDAwIiBkPSJNNDEuOSwxNS4zQzQyLDE0LjgsNDIsMTQuNCw0MiwxNHMwLTAuOC0wLjEtMS4zbDIuNS0xLjhjMC4zLTAuMiwwLjMtMC41LDAuMi0wLjhsLTIuNS00LjMgYy0wLjItMC4zLTAuNS0wLjQtMC44LTAuMmwtMi45LDEuM2MtMC43LTAuNS0xLjQtMC45LTIuMi0xLjNsLTAuMy0zLjFDMzYsMi4yLDM1LjgsMiwzNS41LDJoLTQuOWMtMC4zLDAtMC42LDAuMi0wLjYsMC41bC0wLjMsMy4xIGMtMC44LDAuMy0xLjUsMC43LTIuMiwxLjNsLTIuOS0xLjNjLTAuMy0wLjEtMC42LDAtMC44LDAuMmwtMi41LDQuM2MtMC4yLDAuMy0wLjEsMC42LDAuMiwwLjhsMi41LDEuOEMyNCwxMy4yLDI0LDEzLjYsMjQsMTQgczAsMC44LDAuMSwxLjNsLTIuNSwxLjhjLTAuMywwLjItMC4zLDAuNS0wLjIsMC44bDIuNSw0LjNjMC4yLDAuMywwLjUsMC40LDAuOCwwLjJsMi45LTEuM2MwLjcsMC41LDEuNCwwLjksMi4yLDEuM2wwLjMsMy4xIGMwLDAuMywwLjMsMC41LDAuNiwwLjVoNC45YzAuMywwLDAuNi0wLjIsMC42LTAuNWwwLjMtMy4xYzAuOC0wLjMsMS41LTAuNywyLjItMS4zbDIuOSwxLjNjMC4zLDAuMSwwLjYsMCwwLjgtMC4ybDIuNS00LjMgYzAuMi0wLjMsMC4xLTAuNi0wLjItMC44TDQxLjksMTUuM3ogTTMzLDE5Yy0yLjgsMC01LTIuMi01LTVjMC0yLjgsMi4yLTUsNS01YzIuOCwwLDUsMi4yLDUsNUMzOCwxNi44LDM1LjgsMTksMzMsMTl6Ii8+JiN4YTs8L3N2Zz4=;rotation=0;" vertex="1" parent="1">
          <mxGeometry x="429" y="720" width="50" height="50" as="geometry" />
        </mxCell>
        <mxCell id="t_mzuNe1XYrUj1BvsxeK-53" value="PLC" style="shape=image;verticalLabelPosition=bottom;verticalAlign=top;imageAspect=0;aspect=fixed;image=data:image/svg+xml,PHN2ZyB4bWxucz0iaHR0cDovL3d3dy53My5vcmcvMjAwMC9zdmciIHZlcnNpb249IjEiIHZpZXdCb3g9IjAgMCA0OCA0OCIgZW5hYmxlLWJhY2tncm91bmQ9Im5ldyAwIDAgNDggNDgiPiYjeGE7ICAgIDxwYXRoIGZpbGw9IiNFNjUxMDAiIGQ9Ik0yNS42LDM0LjRjMC4xLTAuNCwwLjEtMC45LDAuMS0xLjRzMC0wLjktMC4xLTEuNGwyLjgtMmMwLjMtMC4yLDAuNC0wLjYsMC4yLTAuOWwtMi43LTQuNiBjLTAuMi0wLjMtMC41LTAuNC0wLjgtMC4zTDIyLDI1LjNjLTAuNy0wLjYtMS41LTEtMi40LTEuNGwtMC4zLTMuNGMwLTAuMy0wLjMtMC42LTAuNi0wLjZoLTUuM2MtMC4zLDAtMC42LDAuMy0wLjYsMC42TDEyLjQsMjQgYy0wLjksMC4zLTEuNiwwLjgtMi40LDEuNGwtMy4xLTEuNGMtMC4zLTAuMS0wLjcsMC0wLjgsMC4zbC0yLjcsNC42Yy0wLjIsMC4zLTAuMSwwLjcsMC4yLDAuOWwyLjgsMmMtMC4xLDAuNC0wLjEsMC45LTAuMSwxLjQgczAsMC45LDAuMSwxLjRsLTIuOCwyYy0wLjMsMC4yLTAuNCwwLjYtMC4yLDAuOWwyLjcsNC42YzAuMiwwLjMsMC41LDAuNCwwLjgsMC4zbDMuMS0xLjRjMC43LDAuNiwxLjUsMSwyLjQsMS40bDAuMywzLjQgYzAsMC4zLDAuMywwLjYsMC42LDAuNmg1LjNjMC4zLDAsMC42LTAuMywwLjYtMC42bDAuMy0zLjRjMC45LTAuMywxLjYtMC44LDIuNC0xLjRsMy4xLDEuNGMwLjMsMC4xLDAuNywwLDAuOC0wLjNsMi43LTQuNiBjMC4yLTAuMywwLjEtMC43LTAuMi0wLjlMMjUuNiwzNC40eiBNMTYsMzhjLTIuOCwwLTUtMi4yLTUtNWMwLTIuOCwyLjItNSw1LTVjMi44LDAsNSwyLjIsNSw1QzIxLDM1LjgsMTguOCwzOCwxNiwzOHoiLz4mI3hhOyAgICA8cGF0aCBmaWxsPSIjRkZBMDAwIiBkPSJNNDEuOSwxNS4zQzQyLDE0LjgsNDIsMTQuNCw0MiwxNHMwLTAuOC0wLjEtMS4zbDIuNS0xLjhjMC4zLTAuMiwwLjMtMC41LDAuMi0wLjhsLTIuNS00LjMgYy0wLjItMC4zLTAuNS0wLjQtMC44LTAuMmwtMi45LDEuM2MtMC43LTAuNS0xLjQtMC45LTIuMi0xLjNsLTAuMy0zLjFDMzYsMi4yLDM1LjgsMiwzNS41LDJoLTQuOWMtMC4zLDAtMC42LDAuMi0wLjYsMC41bC0wLjMsMy4xIGMtMC44LDAuMy0xLjUsMC43LTIuMiwxLjNsLTIuOS0xLjNjLTAuMy0wLjEtMC42LDAtMC44LDAuMmwtMi41LDQuM2MtMC4yLDAuMy0wLjEsMC42LDAuMiwwLjhsMi41LDEuOEMyNCwxMy4yLDI0LDEzLjYsMjQsMTQgczAsMC44LDAuMSwxLjNsLTIuNSwxLjhjLTAuMywwLjItMC4zLDAuNS0wLjIsMC44bDIuNSw0LjNjMC4yLDAuMywwLjUsMC40LDAuOCwwLjJsMi45LTEuM2MwLjcsMC41LDEuNCwwLjksMi4yLDEuM2wwLjMsMy4xIGMwLDAuMywwLjMsMC41LDAuNiwwLjVoNC45YzAuMywwLDAuNi0wLjIsMC42LTAuNWwwLjMtMy4xYzAuOC0wLjMsMS41LTAuNywyLjItMS4zbDIuOSwxLjNjMC4zLDAuMSwwLjYsMCwwLjgtMC4ybDIuNS00LjMgYzAuMi0wLjMsMC4xLTAuNi0wLjItMC44TDQxLjksMTUuM3ogTTMzLDE5Yy0yLjgsMC01LTIuMi01LTVjMC0yLjgsMi4yLTUsNS01YzIuOCwwLDUsMi4yLDUsNUMzOCwxNi44LDM1LjgsMTksMzMsMTl6Ii8+JiN4YTs8L3N2Zz4=;rotation=0;" vertex="1" parent="1">
          <mxGeometry x="501" y="720" width="50" height="50" as="geometry" />
        </mxCell>
        <mxCell id="t_mzuNe1XYrUj1BvsxeK-55" value="PLC" style="shape=image;verticalLabelPosition=bottom;verticalAlign=top;imageAspect=0;aspect=fixed;image=data:image/svg+xml,PHN2ZyB4bWxucz0iaHR0cDovL3d3dy53My5vcmcvMjAwMC9zdmciIHZlcnNpb249IjEiIHZpZXdCb3g9IjAgMCA0OCA0OCIgZW5hYmxlLWJhY2tncm91bmQ9Im5ldyAwIDAgNDggNDgiPiYjeGE7ICAgIDxwYXRoIGZpbGw9IiNFNjUxMDAiIGQ9Ik0yNS42LDM0LjRjMC4xLTAuNCwwLjEtMC45LDAuMS0xLjRzMC0wLjktMC4xLTEuNGwyLjgtMmMwLjMtMC4yLDAuNC0wLjYsMC4yLTAuOWwtMi43LTQuNiBjLTAuMi0wLjMtMC41LTAuNC0wLjgtMC4zTDIyLDI1LjNjLTAuNy0wLjYtMS41LTEtMi40LTEuNGwtMC4zLTMuNGMwLTAuMy0wLjMtMC42LTAuNi0wLjZoLTUuM2MtMC4zLDAtMC42LDAuMy0wLjYsMC42TDEyLjQsMjQgYy0wLjksMC4zLTEuNiwwLjgtMi40LDEuNGwtMy4xLTEuNGMtMC4zLTAuMS0wLjcsMC0wLjgsMC4zbC0yLjcsNC42Yy0wLjIsMC4zLTAuMSwwLjcsMC4yLDAuOWwyLjgsMmMtMC4xLDAuNC0wLjEsMC45LTAuMSwxLjQgczAsMC45LDAuMSwxLjRsLTIuOCwyYy0wLjMsMC4yLTAuNCwwLjYtMC4yLDAuOWwyLjcsNC42YzAuMiwwLjMsMC41LDAuNCwwLjgsMC4zbDMuMS0xLjRjMC43LDAuNiwxLjUsMSwyLjQsMS40bDAuMywzLjQgYzAsMC4zLDAuMywwLjYsMC42LDAuNmg1LjNjMC4zLDAsMC42LTAuMywwLjYtMC42bDAuMy0zLjRjMC45LTAuMywxLjYtMC44LDIuNC0xLjRsMy4xLDEuNGMwLjMsMC4xLDAuNywwLDAuOC0wLjNsMi43LTQuNiBjMC4yLTAuMywwLjEtMC43LTAuMi0wLjlMMjUuNiwzNC40eiBNMTYsMzhjLTIuOCwwLTUtMi4yLTUtNWMwLTIuOCwyLjItNSw1LTVjMi44LDAsNSwyLjIsNSw1QzIxLDM1LjgsMTguOCwzOCwxNiwzOHoiLz4mI3hhOyAgICA8cGF0aCBmaWxsPSIjRkZBMDAwIiBkPSJNNDEuOSwxNS4zQzQyLDE0LjgsNDIsMTQuNCw0MiwxNHMwLTAuOC0wLjEtMS4zbDIuNS0xLjhjMC4zLTAuMiwwLjMtMC41LDAuMi0wLjhsLTIuNS00LjMgYy0wLjItMC4zLTAuNS0wLjQtMC44LTAuMmwtMi45LDEuM2MtMC43LTAuNS0xLjQtMC45LTIuMi0xLjNsLTAuMy0zLjFDMzYsMi4yLDM1LjgsMiwzNS41LDJoLTQuOWMtMC4zLDAtMC42LDAuMi0wLjYsMC41bC0wLjMsMy4xIGMtMC44LDAuMy0xLjUsMC43LTIuMiwxLjNsLTIuOS0xLjNjLTAuMy0wLjEtMC42LDAtMC44LDAuMmwtMi41LDQuM2MtMC4yLDAuMy0wLjEsMC42LDAuMiwwLjhsMi41LDEuOEMyNCwxMy4yLDI0LDEzLjYsMjQsMTQgczAsMC44LDAuMSwxLjNsLTIuNSwxLjhjLTAuMywwLjItMC4zLDAuNS0wLjIsMC44bDIuNSw0LjNjMC4yLDAuMywwLjUsMC40LDAuOCwwLjJsMi45LTEuM2MwLjcsMC41LDEuNCwwLjksMi4yLDEuM2wwLjMsMy4xIGMwLDAuMywwLjMsMC41LDAuNiwwLjVoNC45YzAuMywwLDAuNi0wLjIsMC42LTAuNWwwLjMtMy4xYzAuOC0wLjMsMS41LTAuNywyLjItMS4zbDIuOSwxLjNjMC4zLDAuMSwwLjYsMCwwLjgtMC4ybDIuNS00LjMgYzAuMi0wLjMsMC4xLTAuNi0wLjItMC44TDQxLjksMTUuM3ogTTMzLDE5Yy0yLjgsMC01LTIuMi01LTVjMC0yLjgsMi4yLTUsNS01YzIuOCwwLDUsMi4yLDUsNUMzOCwxNi44LDM1LjgsMTksMzMsMTl6Ii8+JiN4YTs8L3N2Zz4=;rotation=0;" vertex="1" parent="1">
          <mxGeometry x="639" y="720" width="50" height="50" as="geometry" />
        </mxCell>
        <mxCell id="t_mzuNe1XYrUj1BvsxeK-65" value="PLC" style="shape=image;verticalLabelPosition=bottom;verticalAlign=top;imageAspect=0;aspect=fixed;image=data:image/svg+xml,PHN2ZyB4bWxucz0iaHR0cDovL3d3dy53My5vcmcvMjAwMC9zdmciIHZlcnNpb249IjEiIHZpZXdCb3g9IjAgMCA0OCA0OCIgZW5hYmxlLWJhY2tncm91bmQ9Im5ldyAwIDAgNDggNDgiPiYjeGE7ICAgIDxwYXRoIGZpbGw9IiNFNjUxMDAiIGQ9Ik0yNS42LDM0LjRjMC4xLTAuNCwwLjEtMC45LDAuMS0xLjRzMC0wLjktMC4xLTEuNGwyLjgtMmMwLjMtMC4yLDAuNC0wLjYsMC4yLTAuOWwtMi43LTQuNiBjLTAuMi0wLjMtMC41LTAuNC0wLjgtMC4zTDIyLDI1LjNjLTAuNy0wLjYtMS41LTEtMi40LTEuNGwtMC4zLTMuNGMwLTAuMy0wLjMtMC42LTAuNi0wLjZoLTUuM2MtMC4zLDAtMC42LDAuMy0wLjYsMC42TDEyLjQsMjQgYy0wLjksMC4zLTEuNiwwLjgtMi40LDEuNGwtMy4xLTEuNGMtMC4zLTAuMS0wLjcsMC0wLjgsMC4zbC0yLjcsNC42Yy0wLjIsMC4zLTAuMSwwLjcsMC4yLDAuOWwyLjgsMmMtMC4xLDAuNC0wLjEsMC45LTAuMSwxLjQgczAsMC45LDAuMSwxLjRsLTIuOCwyYy0wLjMsMC4yLTAuNCwwLjYtMC4yLDAuOWwyLjcsNC42YzAuMiwwLjMsMC41LDAuNCwwLjgsMC4zbDMuMS0xLjRjMC43LDAuNiwxLjUsMSwyLjQsMS40bDAuMywzLjQgYzAsMC4zLDAuMywwLjYsMC42LDAuNmg1LjNjMC4zLDAsMC42LTAuMywwLjYtMC42bDAuMy0zLjRjMC45LTAuMywxLjYtMC44LDIuNC0xLjRsMy4xLDEuNGMwLjMsMC4xLDAuNywwLDAuOC0wLjNsMi43LTQuNiBjMC4yLTAuMywwLjEtMC43LTAuMi0wLjlMMjUuNiwzNC40eiBNMTYsMzhjLTIuOCwwLTUtMi4yLTUtNWMwLTIuOCwyLjItNSw1LTVjMi44LDAsNSwyLjIsNSw1QzIxLDM1LjgsMTguOCwzOCwxNiwzOHoiLz4mI3hhOyAgICA8cGF0aCBmaWxsPSIjRkZBMDAwIiBkPSJNNDEuOSwxNS4zQzQyLDE0LjgsNDIsMTQuNCw0MiwxNHMwLTAuOC0wLjEtMS4zbDIuNS0xLjhjMC4zLTAuMiwwLjMtMC41LDAuMi0wLjhsLTIuNS00LjMgYy0wLjItMC4zLTAuNS0wLjQtMC44LTAuMmwtMi45LDEuM2MtMC43LTAuNS0xLjQtMC45LTIuMi0xLjNsLTAuMy0zLjFDMzYsMi4yLDM1LjgsMiwzNS41LDJoLTQuOWMtMC4zLDAtMC42LDAuMi0wLjYsMC41bC0wLjMsMy4xIGMtMC44LDAuMy0xLjUsMC43LTIuMiwxLjNsLTIuOS0xLjNjLTAuMy0wLjEtMC42LDAtMC44LDAuMmwtMi41LDQuM2MtMC4yLDAuMy0wLjEsMC42LDAuMiwwLjhsMi41LDEuOEMyNCwxMy4yLDI0LDEzLjYsMjQsMTQgczAsMC44LDAuMSwxLjNsLTIuNSwxLjhjLTAuMywwLjItMC4zLDAuNS0wLjIsMC44bDIuNSw0LjNjMC4yLDAuMywwLjUsMC40LDAuOCwwLjJsMi45LTEuM2MwLjcsMC41LDEuNCwwLjksMi4yLDEuM2wwLjMsMy4xIGMwLDAuMywwLjMsMC41LDAuNiwwLjVoNC45YzAuMywwLDAuNi0wLjIsMC42LTAuNWwwLjMtMy4xYzAuOC0wLjMsMS41LTAuNywyLjItMS4zbDIuOSwxLjNjMC4zLDAuMSwwLjYsMCwwLjgtMC4ybDIuNS00LjMgYzAuMi0wLjMsMC4xLTAuNi0wLjItMC44TDQxLjksMTUuM3ogTTMzLDE5Yy0yLjgsMC01LTIuMi01LTVjMC0yLjgsMi4yLTUsNS01YzIuOCwwLDUsMi4yLDUsNUMzOCwxNi44LDM1LjgsMTksMzMsMTl6Ii8+JiN4YTs8L3N2Zz4=;rotation=0;" vertex="1" parent="1">
          <mxGeometry x="574" y="720" width="50" height="50" as="geometry" />
        </mxCell>
        <mxCell id="t_mzuNe1XYrUj1BvsxeK-69" value="" style="shape=image;verticalLabelPosition=bottom;verticalAlign=top;imageAspect=0;aspect=fixed;image=data:image/svg+xml,PHN2ZyB4bWxucz0iaHR0cDovL3d3dy53My5vcmcvMjAwMC9zdmciIHZlcnNpb249IjEiIHZpZXdCb3g9IjAgMCA0OCA0OCIgZW5hYmxlLWJhY2tncm91bmQ9Im5ldyAwIDAgNDggNDgiPiYjeGE7ICAgIDxwb2x5Z29uIGZpbGw9IiM5MENBRjkiIHBvaW50cz0iMzYsMTMgMzYsOSAyMiw5IDIyLDIyIDEzLDIyIDEzLDI2IDIyLDI2IDIyLDM5IDM2LDM5IDM2LDM1IDI2LDM1IDI2LDI2IDM2LDI2IDM2LDIyIDI2LDIyIDI2LDEzIi8+JiN4YTsgICAgPHJlY3QgeD0iNiIgeT0iMTciIGZpbGw9IiNEODFCNjAiIHdpZHRoPSIxMCIgaGVpZ2h0PSIxNCIvPiYjeGE7ICAgIDxyZWN0IHg9IjMyIiB5PSI2IiBmaWxsPSIjMjE5NkYzIiB3aWR0aD0iMTAiIGhlaWdodD0iMTAiLz4mI3hhOyAgICA8cmVjdCB4PSIzMiIgeT0iMzIiIGZpbGw9IiMyMTk2RjMiIHdpZHRoPSIxMCIgaGVpZ2h0PSIxMCIvPiYjeGE7ICAgIDxyZWN0IHg9IjMyIiB5PSIxOSIgZmlsbD0iIzIxOTZGMyIgd2lkdGg9IjEwIiBoZWlnaHQ9IjEwIi8+JiN4YTs8L3N2Zz4=;rotation=90;" vertex="1" parent="1">
          <mxGeometry x="359" y="315" width="48" height="48" as="geometry" />
        </mxCell>
      </root>
    </mxGraphModel>
  </diagram>
</mxfile>
